M48
; DRILL file {KiCad 9.0.0} date 2025-03-10T22:05:18+0100
; FORMAT={-:-/ absolute / metric / decimal}
; #@! TF.CreationDate,2025-03-10T22:05:18+01:00
; #@! TF.GenerationSoftware,Kicad,Pcbnew,9.0.0
; #@! TF.FileFunction,Plated,1,2,PTH
FMAT,2
METRIC
; #@! TA.AperFunction,Plated,PTH,ComponentDrill
T1C0.700
; #@! TA.AperFunction,Plated,PTH,ComponentDrill
T2C0.800
; #@! TA.AperFunction,Plated,PTH,ComponentDrill
T3C0.900
; #@! TA.AperFunction,Plated,PTH,ComponentDrill
T4C1.000
; #@! TA.AperFunction,Plated,PTH,ComponentDrill
T5C1.050
; #@! TA.AperFunction,Plated,PTH,ComponentDrill
T6C1.200
; #@! TA.AperFunction,Plated,PTH,ComponentDrill
T7C1.250
; #@! TA.AperFunction,Plated,PTH,ComponentDrill
T8C1.300
%
G90
G05
T1
X156.23Y-81.28
X156.23Y-86.36
X158.77Y-81.28
X158.77Y-86.36
T2
X158.755Y-100.335
X158.755Y-102.875
X161.29Y-95.25
X163.79Y-95.25
X166.375Y-100.335
X166.375Y-102.875
X168.91Y-93.98
X170.18Y-96.52
X170.18Y-99.06
X170.18Y-101.6
X176.53Y-96.52
X176.53Y-106.68
X179.07Y-93.98
X179.07Y-96.52
X179.07Y-106.68
X182.88Y-91.44
X182.88Y-93.98
X182.88Y-96.52
X182.88Y-99.06
X182.88Y-101.6
X182.88Y-104.14
X182.88Y-106.68
X182.88Y-109.22
X182.88Y-111.76
X185.42Y-91.44
X185.42Y-93.98
X190.5Y-93.98
X193.04Y-93.98
X198.12Y-91.44
X198.12Y-93.98
X198.12Y-96.52
X198.12Y-99.06
X198.12Y-101.6
X198.12Y-104.14
X198.12Y-106.68
X198.12Y-109.22
X198.12Y-111.76
X205.74Y-91.44
X205.74Y-93.94
X210.69Y-76.32
X212.09Y-83.82
T3
X158.75Y-90.17
X158.75Y-106.68
X161.29Y-106.68
X166.37Y-90.17
X171.45Y-106.68
X173.99Y-106.68
T4
X201.93Y-101.6
X201.93Y-111.76
X207.01Y-104.195
X207.01Y-111.695
X213.36Y-91.68
X213.36Y-106.68
X242.44Y-96.68
X242.44Y-101.68
T5
X177.746Y-86.36
X180.286Y-86.36
T6
X156.21Y-77.47
X176.53Y-77.47
T7
X190.446Y-86.36
X195.526Y-86.36
T8
X180.42Y-77.47
X185.42Y-77.47
X190.54Y-77.47
X195.54Y-77.47
X200.66Y-77.47
X205.66Y-77.47
X214.87Y-80.01
X224.87Y-80.01
M30
