%TF.GenerationSoftware,KiCad,Pcbnew,9.0.0*%
%TF.CreationDate,2025-03-10T22:05:16+01:00*%
%TF.ProjectId,BigBrother_Telerupteur,42696742-726f-4746-9865-725f54656c65,rev?*%
%TF.SameCoordinates,Original*%
%TF.FileFunction,Copper,L2,Bot*%
%TF.FilePolarity,Positive*%
%FSLAX46Y46*%
G04 Gerber Fmt 4.6, Leading zero omitted, Abs format (unit mm)*
G04 Created by KiCad (PCBNEW 9.0.0) date 2025-03-10 22:05:16*
%MOMM*%
%LPD*%
G01*
G04 APERTURE LIST*
G04 Aperture macros list*
%AMRoundRect*
0 Rectangle with rounded corners*
0 $1 Rounding radius*
0 $2 $3 $4 $5 $6 $7 $8 $9 X,Y pos of 4 corners*
0 Add a 4 corners polygon primitive as box body*
4,1,4,$2,$3,$4,$5,$6,$7,$8,$9,$2,$3,0*
0 Add four circle primitives for the rounded corners*
1,1,$1+$1,$2,$3*
1,1,$1+$1,$4,$5*
1,1,$1+$1,$6,$7*
1,1,$1+$1,$8,$9*
0 Add four rect primitives between the rounded corners*
20,1,$1+$1,$2,$3,$4,$5,0*
20,1,$1+$1,$4,$5,$6,$7,0*
20,1,$1+$1,$6,$7,$8,$9,0*
20,1,$1+$1,$8,$9,$2,$3,0*%
G04 Aperture macros list end*
%TA.AperFunction,ComponentPad*%
%ADD10R,1.700000X2.000000*%
%TD*%
%TA.AperFunction,ComponentPad*%
%ADD11O,1.700000X2.000000*%
%TD*%
%TA.AperFunction,ComponentPad*%
%ADD12R,2.500000X2.500000*%
%TD*%
%TA.AperFunction,ComponentPad*%
%ADD13C,2.500000*%
%TD*%
%TA.AperFunction,ComponentPad*%
%ADD14C,1.600000*%
%TD*%
%TA.AperFunction,ComponentPad*%
%ADD15O,1.600000X1.600000*%
%TD*%
%TA.AperFunction,ComponentPad*%
%ADD16RoundRect,0.250000X-1.050000X-1.050000X1.050000X-1.050000X1.050000X1.050000X-1.050000X1.050000X0*%
%TD*%
%TA.AperFunction,ComponentPad*%
%ADD17C,2.600000*%
%TD*%
%TA.AperFunction,ComponentPad*%
%ADD18R,1.800000X1.800000*%
%TD*%
%TA.AperFunction,ComponentPad*%
%ADD19O,1.800000X1.800000*%
%TD*%
%TA.AperFunction,ComponentPad*%
%ADD20R,1.400000X1.400000*%
%TD*%
%TA.AperFunction,ComponentPad*%
%ADD21C,1.400000*%
%TD*%
%TA.AperFunction,ComponentPad*%
%ADD22O,2.000000X1.200000*%
%TD*%
%TA.AperFunction,ComponentPad*%
%ADD23R,2.000000X1.200000*%
%TD*%
%TA.AperFunction,ComponentPad*%
%ADD24R,1.600000X1.600000*%
%TD*%
%TA.AperFunction,ComponentPad*%
%ADD25R,1.500000X1.500000*%
%TD*%
%TA.AperFunction,ComponentPad*%
%ADD26C,1.500000*%
%TD*%
%TA.AperFunction,ComponentPad*%
%ADD27C,1.800000*%
%TD*%
%TA.AperFunction,ComponentPad*%
%ADD28RoundRect,0.250000X-0.550000X-0.550000X0.550000X-0.550000X0.550000X0.550000X-0.550000X0.550000X0*%
%TD*%
%TA.AperFunction,ComponentPad*%
%ADD29R,2.000000X2.000000*%
%TD*%
%TA.AperFunction,ComponentPad*%
%ADD30O,2.000000X2.000000*%
%TD*%
%TA.AperFunction,ComponentPad*%
%ADD31R,1.778000X1.778000*%
%TD*%
%TA.AperFunction,ComponentPad*%
%ADD32C,2.000000*%
%TD*%
%TA.AperFunction,ComponentPad*%
%ADD33C,2.400000*%
%TD*%
%TA.AperFunction,ComponentPad*%
%ADD34O,2.400000X2.400000*%
%TD*%
G04 APERTURE END LIST*
D10*
%TO.P,PS1,1,AC/L*%
%TO.N,Net-(PS1-AC{slash}L)*%
X242440000Y-96680000D03*
D11*
%TO.P,PS1,2,AC/N*%
%TO.N,/N*%
X242440000Y-101680000D03*
%TO.P,PS1,3,-Vout*%
%TO.N,GND*%
X213360000Y-91680000D03*
%TO.P,PS1,4,+Vout*%
%TO.N,+5V*%
X213360000Y-106680000D03*
%TD*%
D12*
%TO.P,F1,1*%
%TO.N,/P*%
X214870000Y-80010000D03*
D13*
%TO.P,F1,2*%
%TO.N,Net-(PS1-AC{slash}L)*%
X224870000Y-80010000D03*
%TD*%
D14*
%TO.P,R2,1*%
%TO.N,Signal_Sortie*%
X179070000Y-93980000D03*
D15*
%TO.P,R2,2*%
%TO.N,Net-(Q1-B)*%
X168910000Y-93980000D03*
%TD*%
D16*
%TO.P,J3,1,Pin_1*%
%TO.N,/N_L*%
X190540000Y-77470000D03*
D17*
%TO.P,J3,2,Pin_2*%
%TO.N,/S_L*%
X195540000Y-77470000D03*
%TD*%
D18*
%TO.P,D2,1,K*%
%TO.N,Net-(D1-+)*%
X166370000Y-90170000D03*
D19*
%TO.P,D2,2,A*%
%TO.N,Net-(D1--)*%
X158750000Y-90170000D03*
%TD*%
D16*
%TO.P,J2,1,Pin_1*%
%TO.N,/N*%
X200660000Y-77470000D03*
D17*
%TO.P,J2,2,Pin_2*%
%TO.N,/P*%
X205660000Y-77470000D03*
%TD*%
D20*
%TO.P,D1,1*%
%TO.N,Net-(D1-Pad1)*%
X156230000Y-81280000D03*
D21*
%TO.P,D1,2*%
%TO.N,/N_A*%
X158770000Y-81280000D03*
%TO.P,D1,3,+*%
%TO.N,Net-(D1-+)*%
X158770000Y-86360000D03*
%TO.P,D1,4,-*%
%TO.N,Net-(D1--)*%
X156230000Y-86360000D03*
%TD*%
D16*
%TO.P,J1,1,Pin_1*%
%TO.N,/L_A*%
X180420000Y-77470000D03*
D17*
%TO.P,J1,2,Pin_2*%
%TO.N,/N_A*%
X185420000Y-77470000D03*
%TD*%
D22*
%TO.P,U1,0,GPIO0/FSPIQ*%
%TO.N,Signal_Entr\u00E9e*%
X182880000Y-106680000D03*
%TO.P,U1,1,GPIO1/FSPICS0/ADC1_CH0*%
%TO.N,unconnected-(U1-GPIO1{slash}FSPICS0{slash}ADC1_CH0-Pad1)*%
X182880000Y-104140000D03*
%TO.P,U1,2,GPIO2/FSPIWP/ADC1_CH1/MTMS*%
%TO.N,unconnected-(U1-GPIO2{slash}FSPIWP{slash}ADC1_CH1{slash}MTMS-Pad2)*%
X182880000Y-101600000D03*
%TO.P,U1,3,GPIO3/FSPIHD/ADC1_CH2/MTDO*%
%TO.N,unconnected-(U1-GPIO3{slash}FSPIHD{slash}ADC1_CH2{slash}MTDO-Pad3)*%
X182880000Y-99060000D03*
%TO.P,U1,3V3,3V3*%
%TO.N,unconnected-(U1-Pad3V3)*%
X198120000Y-106680000D03*
%TO.P,U1,4,GPIO4/FSPICLK/ADC1_CH3/MTCK*%
%TO.N,unconnected-(U1-GPIO4{slash}FSPICLK{slash}ADC1_CH3{slash}MTCK-Pad4)*%
X182880000Y-96520000D03*
%TO.P,U1,5,GPIO5/FSPID/ADC1_CH4/MTDI*%
%TO.N,Signal_Sortie*%
X182880000Y-93980000D03*
%TO.P,U1,5V,VBAT*%
%TO.N,+5V*%
X198120000Y-111760000D03*
%TO.P,U1,8,GPIO8*%
%TO.N,unconnected-(U1-GPIO8-Pad8)*%
X182880000Y-91440000D03*
%TO.P,U1,9,GPIO9*%
%TO.N,unconnected-(U1-GPIO9-Pad9)*%
X198120000Y-91440000D03*
%TO.P,U1,10,GPIO10/ZCD0*%
%TO.N,unconnected-(U1-GPIO10{slash}ZCD0-Pad10)*%
X198120000Y-93980000D03*
%TO.P,U1,11,GPIO11/ZCD1*%
%TO.N,unconnected-(U1-GPIO11{slash}ZCD1-Pad11)*%
X198120000Y-96520000D03*
%TO.P,U1,12,GPIO12*%
%TO.N,unconnected-(U1-GPIO12-Pad12)*%
X198120000Y-99060000D03*
%TO.P,U1,13,GPIO13/XTAL_32K_P*%
%TO.N,unconnected-(U1-GPIO13{slash}XTAL_32K_P-Pad13)*%
X198120000Y-101600000D03*
%TO.P,U1,14,GPIO14/XTAL_32K_N*%
%TO.N,unconnected-(U1-GPIO14{slash}XTAL_32K_N-Pad14)*%
X198120000Y-104140000D03*
%TO.P,U1,22,GPIO22*%
%TO.N,unconnected-(U1-GPIO22-Pad22)*%
X193040000Y-93980000D03*
%TO.P,U1,25,GPIO25/FSPICS3*%
%TO.N,unconnected-(U1-GPIO25{slash}FSPICS3-Pad25)*%
X190500000Y-93980000D03*
%TO.P,U1,26,GPIO26/FSPICS4/USB_D-*%
%TO.N,unconnected-(U1-GPIO26{slash}FSPICS4{slash}USB_D--Pad26)*%
X185420000Y-93980000D03*
%TO.P,U1,27,GPIO27/FSPICS5/USB_D+*%
%TO.N,unconnected-(U1-GPIO27{slash}FSPICS5{slash}USB_D+-Pad27)*%
X185420000Y-91440000D03*
%TO.P,U1,GND,GND*%
%TO.N,GND*%
X198120000Y-109220000D03*
%TO.P,U1,RX,GPIO23/FSPICS1/U0RXD*%
%TO.N,unconnected-(U1-GPIO23{slash}FSPICS1{slash}U0RXD-PadRX)*%
X182880000Y-109220000D03*
D23*
%TO.P,U1,TX,GPIO24/FSPICS2/U0TXD*%
%TO.N,unconnected-(U1-GPIO24{slash}FSPICS2{slash}U0TXD-PadTX)*%
X182880000Y-111760000D03*
%TD*%
D14*
%TO.P,R4,1*%
%TO.N,Signal_Entr\u00E9e*%
X179070000Y-106680000D03*
D15*
%TO.P,R4,2*%
%TO.N,+5V*%
X179070000Y-96520000D03*
%TD*%
D24*
%TO.P,C2,1*%
%TO.N,+5V*%
X205740000Y-93940000D03*
D14*
%TO.P,C2,2*%
%TO.N,GND*%
X205740000Y-91440000D03*
%TD*%
%TO.P,R3,1*%
%TO.N,+5V*%
X176530000Y-96520000D03*
D15*
%TO.P,R3,2*%
%TO.N,Net-(D3-A)*%
X176530000Y-106680000D03*
%TD*%
D25*
%TO.P,Q1,1,C*%
%TO.N,Net-(D3-K)*%
X170180000Y-101600000D03*
D26*
%TO.P,Q1,2,B*%
%TO.N,Net-(Q1-B)*%
X170180000Y-99060000D03*
%TO.P,Q1,3,E*%
%TO.N,GND*%
X170180000Y-96520000D03*
%TD*%
D24*
%TO.P,C1,1*%
%TO.N,Net-(D1-+)*%
X163790000Y-95250000D03*
D14*
%TO.P,C1,2*%
%TO.N,Net-(D1--)*%
X161290000Y-95250000D03*
%TD*%
D18*
%TO.P,D3,1,K*%
%TO.N,Net-(D3-K)*%
X171450000Y-106680000D03*
D27*
%TO.P,D3,2,A*%
%TO.N,Net-(D3-A)*%
X173990000Y-106680000D03*
%TD*%
D28*
%TO.P,U2,1*%
%TO.N,Net-(D4-K)*%
X158755000Y-102875000D03*
D14*
%TO.P,U2,2*%
%TO.N,Net-(D1--)*%
X158755000Y-100335000D03*
%TO.P,U2,3*%
%TO.N,GND*%
X166375000Y-100335000D03*
%TO.P,U2,4*%
%TO.N,Signal_Entr\u00E9e*%
X166375000Y-102875000D03*
%TD*%
D29*
%TO.P,D5,1,K*%
%TO.N,+5V*%
X201930000Y-111760000D03*
D30*
%TO.P,D5,2,A*%
%TO.N,GND*%
X201930000Y-101600000D03*
%TD*%
D18*
%TO.P,D4,1,K*%
%TO.N,Net-(D4-K)*%
X158750000Y-106680000D03*
D27*
%TO.P,D4,2,A*%
%TO.N,Net-(D1-+)*%
X161290000Y-106680000D03*
%TD*%
D31*
%TO.P,K1,1*%
%TO.N,Net-(D3-K)*%
X177746300Y-86360000D03*
D32*
%TO.P,K1,2*%
%TO.N,+5V*%
X180286300Y-86360000D03*
D13*
%TO.P,K1,3*%
%TO.N,/N_L*%
X190446300Y-86360000D03*
%TO.P,K1,4*%
%TO.N,/S_L*%
X195526300Y-86360000D03*
%TD*%
D27*
%TO.P,RV1,1*%
%TO.N,/N*%
X212090000Y-83820000D03*
%TO.P,RV1,2*%
%TO.N,Net-(PS1-AC{slash}L)*%
X210690000Y-76320000D03*
%TD*%
D32*
%TO.P,C3,1*%
%TO.N,+5V*%
X207010000Y-111695000D03*
%TO.P,C3,2*%
%TO.N,GND*%
X207010000Y-104195000D03*
%TD*%
D33*
%TO.P,R1,1*%
%TO.N,/L_A*%
X176530000Y-77470000D03*
D34*
%TO.P,R1,2*%
%TO.N,Net-(D1-Pad1)*%
X156210000Y-77470000D03*
%TD*%
%TA.AperFunction,Conductor*%
%TO.N,GND*%
G36*
X182823039Y-83839685D02*
G01*
X182868794Y-83892489D01*
X182880000Y-83944000D01*
X182880000Y-88900000D01*
X200536000Y-88900000D01*
X200603039Y-88919685D01*
X200648794Y-88972489D01*
X200660000Y-89024000D01*
X200660000Y-110274847D01*
X200640315Y-110341886D01*
X200610312Y-110374113D01*
X200572452Y-110402455D01*
X200486206Y-110517664D01*
X200486202Y-110517671D01*
X200435908Y-110652517D01*
X200429501Y-110712116D01*
X200429500Y-110712135D01*
X200429500Y-112807870D01*
X200429501Y-112807876D01*
X200435908Y-112867483D01*
X200486202Y-113002328D01*
X200486203Y-113002329D01*
X200486204Y-113002331D01*
X200572452Y-113117543D01*
X200572451Y-113117543D01*
X200572452Y-113117544D01*
X200572454Y-113117546D01*
X200610313Y-113145887D01*
X200652181Y-113201816D01*
X200660000Y-113245151D01*
X200660000Y-113675500D01*
X200640315Y-113742539D01*
X200587511Y-113788294D01*
X200536000Y-113799500D01*
X154294500Y-113799500D01*
X154227461Y-113779815D01*
X154181706Y-113727011D01*
X154170500Y-113675500D01*
X154170500Y-110373947D01*
X155709500Y-110373947D01*
X155709500Y-110606052D01*
X155739794Y-110836148D01*
X155799862Y-111060328D01*
X155888677Y-111274745D01*
X155888685Y-111274762D01*
X156004720Y-111475743D01*
X156004721Y-111475745D01*
X156146009Y-111659875D01*
X156146015Y-111659882D01*
X156310117Y-111823984D01*
X156310124Y-111823990D01*
X156494254Y-111965278D01*
X156494256Y-111965279D01*
X156695237Y-112081314D01*
X156695240Y-112081315D01*
X156695248Y-112081320D01*
X156909670Y-112170137D01*
X157133851Y-112230206D01*
X157363955Y-112260500D01*
X157363962Y-112260500D01*
X157596038Y-112260500D01*
X157596045Y-112260500D01*
X157826149Y-112230206D01*
X158050330Y-112170137D01*
X158264752Y-112081320D01*
X158465748Y-111965276D01*
X158649877Y-111823989D01*
X158813989Y-111659877D01*
X158955276Y-111475748D01*
X159071320Y-111274752D01*
X159138679Y-111112135D01*
X181379500Y-111112135D01*
X181379500Y-112407870D01*
X181379501Y-112407876D01*
X181385908Y-112467483D01*
X181436202Y-112602328D01*
X181436206Y-112602335D01*
X181522452Y-112717544D01*
X181522455Y-112717547D01*
X181637664Y-112803793D01*
X181637671Y-112803797D01*
X181772517Y-112854091D01*
X181772516Y-112854091D01*
X181779444Y-112854835D01*
X181832127Y-112860500D01*
X183927872Y-112860499D01*
X183987483Y-112854091D01*
X184122331Y-112803796D01*
X184237546Y-112717546D01*
X184323796Y-112602331D01*
X184374091Y-112467483D01*
X184380500Y-112407873D01*
X184380499Y-111673389D01*
X196619500Y-111673389D01*
X196619500Y-111846610D01*
X196638294Y-111965276D01*
X196646598Y-112017701D01*
X196700127Y-112182445D01*
X196778768Y-112336788D01*
X196880586Y-112476928D01*
X197003072Y-112599414D01*
X197143212Y-112701232D01*
X197297555Y-112779873D01*
X197462299Y-112833402D01*
X197633389Y-112860500D01*
X197633390Y-112860500D01*
X198606610Y-112860500D01*
X198606611Y-112860500D01*
X198777701Y-112833402D01*
X198942445Y-112779873D01*
X199096788Y-112701232D01*
X199236928Y-112599414D01*
X199359414Y-112476928D01*
X199461232Y-112336788D01*
X199539873Y-112182445D01*
X199593402Y-112017701D01*
X199620500Y-111846611D01*
X199620500Y-111673389D01*
X199593402Y-111502299D01*
X199539873Y-111337555D01*
X199461232Y-111183212D01*
X199359414Y-111043072D01*
X199236928Y-110920586D01*
X199096788Y-110818768D01*
X198942445Y-110740127D01*
X198777701Y-110686598D01*
X198777699Y-110686597D01*
X198777698Y-110686597D01*
X198646271Y-110665781D01*
X198606611Y-110659500D01*
X197633389Y-110659500D01*
X197593728Y-110665781D01*
X197462302Y-110686597D01*
X197297552Y-110740128D01*
X197143211Y-110818768D01*
X197063256Y-110876859D01*
X197003072Y-110920586D01*
X197003070Y-110920588D01*
X197003069Y-110920588D01*
X196880588Y-111043069D01*
X196880588Y-111043070D01*
X196880586Y-111043072D01*
X196836859Y-111103256D01*
X196778768Y-111183211D01*
X196700128Y-111337552D01*
X196646597Y-111502302D01*
X196619500Y-111673389D01*
X184380499Y-111673389D01*
X184380499Y-111112128D01*
X184374091Y-111052517D01*
X184370568Y-111043072D01*
X184323797Y-110917671D01*
X184323793Y-110917664D01*
X184237547Y-110802455D01*
X184237544Y-110802452D01*
X184122335Y-110716206D01*
X184122328Y-110716202D01*
X183987482Y-110665908D01*
X183987483Y-110665908D01*
X183927883Y-110659501D01*
X183927881Y-110659500D01*
X183927873Y-110659500D01*
X183927864Y-110659500D01*
X181832129Y-110659500D01*
X181832123Y-110659501D01*
X181772516Y-110665908D01*
X181637671Y-110716202D01*
X181637664Y-110716206D01*
X181522455Y-110802452D01*
X181522452Y-110802455D01*
X181436206Y-110917664D01*
X181436202Y-110917671D01*
X181385908Y-111052517D01*
X181379501Y-111112116D01*
X181379501Y-111112123D01*
X181379500Y-111112135D01*
X159138679Y-111112135D01*
X159160137Y-111060330D01*
X159220206Y-110836149D01*
X159250500Y-110606045D01*
X159250500Y-110373955D01*
X159220206Y-110143851D01*
X159160137Y-109919670D01*
X159071320Y-109705248D01*
X159071314Y-109705237D01*
X158955279Y-109504256D01*
X158955278Y-109504254D01*
X158813990Y-109320124D01*
X158813984Y-109320117D01*
X158649882Y-109156015D01*
X158649875Y-109156009D01*
X158620396Y-109133389D01*
X181379500Y-109133389D01*
X181379500Y-109306611D01*
X181406598Y-109477701D01*
X181460065Y-109642255D01*
X181460128Y-109642447D01*
X181501785Y-109724205D01*
X181538768Y-109796788D01*
X181640586Y-109936928D01*
X181763072Y-110059414D01*
X181903212Y-110161232D01*
X182057555Y-110239873D01*
X182222299Y-110293402D01*
X182393389Y-110320500D01*
X182393390Y-110320500D01*
X183366610Y-110320500D01*
X183366611Y-110320500D01*
X183537701Y-110293402D01*
X183702445Y-110239873D01*
X183856788Y-110161232D01*
X183996928Y-110059414D01*
X184119414Y-109936928D01*
X184221232Y-109796788D01*
X184299873Y-109642445D01*
X184353402Y-109477701D01*
X184380500Y-109306611D01*
X184380500Y-109133389D01*
X184380500Y-109133388D01*
X184363565Y-109026462D01*
X184363565Y-109026460D01*
X184356929Y-108984573D01*
X184354621Y-108969999D01*
X196645884Y-108969999D01*
X196645885Y-108970000D01*
X197804314Y-108970000D01*
X197799920Y-108974394D01*
X197747259Y-109065606D01*
X197720000Y-109167339D01*
X197720000Y-109272661D01*
X197747259Y-109374394D01*
X197799920Y-109465606D01*
X197804314Y-109470000D01*
X196645885Y-109470000D01*
X196647085Y-109477584D01*
X196700591Y-109642255D01*
X196779195Y-109796524D01*
X196880967Y-109936602D01*
X197003397Y-110059032D01*
X197143475Y-110160804D01*
X197297742Y-110239408D01*
X197462415Y-110292914D01*
X197633429Y-110320000D01*
X197870000Y-110320000D01*
X197870000Y-109535686D01*
X197874394Y-109540080D01*
X197965606Y-109592741D01*
X198067339Y-109620000D01*
X198172661Y-109620000D01*
X198274394Y-109592741D01*
X198365606Y-109540080D01*
X198370000Y-109535686D01*
X198370000Y-110320000D01*
X198606571Y-110320000D01*
X198777584Y-110292914D01*
X198942257Y-110239408D01*
X199096524Y-110160804D01*
X199236602Y-110059032D01*
X199359032Y-109936602D01*
X199460804Y-109796524D01*
X199539408Y-109642255D01*
X199592914Y-109477584D01*
X199594115Y-109470000D01*
X198435686Y-109470000D01*
X198440080Y-109465606D01*
X198492741Y-109374394D01*
X198520000Y-109272661D01*
X198520000Y-109167339D01*
X198492741Y-109065606D01*
X198440080Y-108974394D01*
X198435686Y-108970000D01*
X199594115Y-108970000D01*
X199594115Y-108969999D01*
X199592914Y-108962415D01*
X199539408Y-108797744D01*
X199460804Y-108643475D01*
X199359032Y-108503397D01*
X199236602Y-108380967D01*
X199096524Y-108279195D01*
X198942257Y-108200591D01*
X198777584Y-108147085D01*
X198606571Y-108120000D01*
X198370000Y-108120000D01*
X198370000Y-108904314D01*
X198365606Y-108899920D01*
X198274394Y-108847259D01*
X198172661Y-108820000D01*
X198067339Y-108820000D01*
X197965606Y-108847259D01*
X197874394Y-108899920D01*
X197870000Y-108904314D01*
X197870000Y-108120000D01*
X197633429Y-108120000D01*
X197462415Y-108147085D01*
X197297742Y-108200591D01*
X197143475Y-108279195D01*
X197003397Y-108380967D01*
X196880967Y-108503397D01*
X196779195Y-108643475D01*
X196700591Y-108797744D01*
X196647085Y-108962415D01*
X196645884Y-108969999D01*
X184354621Y-108969999D01*
X184353402Y-108962299D01*
X184299873Y-108797555D01*
X184221232Y-108643212D01*
X184119414Y-108503072D01*
X183996928Y-108380586D01*
X183856788Y-108278768D01*
X183702445Y-108200127D01*
X183537701Y-108146598D01*
X183537699Y-108146597D01*
X183537698Y-108146597D01*
X183406271Y-108125781D01*
X183366611Y-108119500D01*
X182393389Y-108119500D01*
X182353728Y-108125781D01*
X182222302Y-108146597D01*
X182057552Y-108200128D01*
X181903211Y-108278768D01*
X181823256Y-108336859D01*
X181763072Y-108380586D01*
X181763070Y-108380588D01*
X181763069Y-108380588D01*
X181640588Y-108503069D01*
X181640588Y-108503070D01*
X181640586Y-108503072D01*
X181640350Y-108503397D01*
X181538768Y-108643211D01*
X181460128Y-108797552D01*
X181406597Y-108962302D01*
X181390236Y-109065606D01*
X181379500Y-109133389D01*
X158620396Y-109133389D01*
X158465745Y-109014721D01*
X158465743Y-109014720D01*
X158264762Y-108898685D01*
X158264754Y-108898681D01*
X158264752Y-108898680D01*
X158264745Y-108898677D01*
X158050328Y-108809862D01*
X157908203Y-108771780D01*
X157826149Y-108749794D01*
X157797386Y-108746007D01*
X157596052Y-108719500D01*
X157596045Y-108719500D01*
X157363955Y-108719500D01*
X157363947Y-108719500D01*
X157133851Y-108749794D01*
X156909671Y-108809862D01*
X156695254Y-108898677D01*
X156695237Y-108898685D01*
X156494256Y-109014720D01*
X156494254Y-109014721D01*
X156310124Y-109156009D01*
X156310117Y-109156015D01*
X156146015Y-109320117D01*
X156146009Y-109320124D01*
X156004721Y-109504254D01*
X156004720Y-109504256D01*
X155888685Y-109705237D01*
X155888677Y-109705254D01*
X155799862Y-109919671D01*
X155739794Y-110143851D01*
X155709500Y-110373947D01*
X154170500Y-110373947D01*
X154170500Y-105732135D01*
X157349500Y-105732135D01*
X157349500Y-107627870D01*
X157349501Y-107627876D01*
X157355908Y-107687483D01*
X157406202Y-107822328D01*
X157406206Y-107822335D01*
X157492452Y-107937544D01*
X157492455Y-107937547D01*
X157607664Y-108023793D01*
X157607671Y-108023797D01*
X157742517Y-108074091D01*
X157742516Y-108074091D01*
X157749444Y-108074835D01*
X157802127Y-108080500D01*
X159697872Y-108080499D01*
X159757483Y-108074091D01*
X159892331Y-108023796D01*
X160007546Y-107937546D01*
X160093796Y-107822331D01*
X160121429Y-107748243D01*
X160123601Y-107742420D01*
X160165471Y-107686486D01*
X160230936Y-107662068D01*
X160299209Y-107676919D01*
X160327464Y-107698071D01*
X160377636Y-107748243D01*
X160377641Y-107748247D01*
X160438258Y-107792287D01*
X160555978Y-107877815D01*
X160684375Y-107943237D01*
X160752393Y-107977895D01*
X160752396Y-107977896D01*
X160857221Y-108011955D01*
X160962049Y-108046015D01*
X161179778Y-108080500D01*
X161179779Y-108080500D01*
X161400221Y-108080500D01*
X161400222Y-108080500D01*
X161617951Y-108046015D01*
X161827606Y-107977895D01*
X162024022Y-107877815D01*
X162202365Y-107748242D01*
X162358242Y-107592365D01*
X162487815Y-107414022D01*
X162587895Y-107217606D01*
X162656015Y-107007951D01*
X162690500Y-106790222D01*
X162690500Y-106569778D01*
X162656015Y-106352049D01*
X162587895Y-106142394D01*
X162587895Y-106142393D01*
X162553237Y-106074375D01*
X162487815Y-105945978D01*
X162429501Y-105865715D01*
X162382986Y-105801691D01*
X162358247Y-105767641D01*
X162358243Y-105767636D01*
X162322742Y-105732135D01*
X170049500Y-105732135D01*
X170049500Y-107627870D01*
X170049501Y-107627876D01*
X170055908Y-107687483D01*
X170106202Y-107822328D01*
X170106206Y-107822335D01*
X170192452Y-107937544D01*
X170192455Y-107937547D01*
X170307664Y-108023793D01*
X170307671Y-108023797D01*
X170442517Y-108074091D01*
X170442516Y-108074091D01*
X170449444Y-108074835D01*
X170502127Y-108080500D01*
X172397872Y-108080499D01*
X172457483Y-108074091D01*
X172592331Y-108023796D01*
X172707546Y-107937546D01*
X172793796Y-107822331D01*
X172821429Y-107748243D01*
X172823601Y-107742420D01*
X172865471Y-107686486D01*
X172930936Y-107662068D01*
X172999209Y-107676919D01*
X173027464Y-107698071D01*
X173077636Y-107748243D01*
X173077641Y-107748247D01*
X173138258Y-107792287D01*
X173255978Y-107877815D01*
X173384375Y-107943237D01*
X173452393Y-107977895D01*
X173452396Y-107977896D01*
X173557221Y-108011955D01*
X173662049Y-108046015D01*
X173879778Y-108080500D01*
X173879779Y-108080500D01*
X174100221Y-108080500D01*
X174100222Y-108080500D01*
X174317951Y-108046015D01*
X174527606Y-107977895D01*
X174724022Y-107877815D01*
X174902365Y-107748242D01*
X175058242Y-107592365D01*
X175187815Y-107414022D01*
X175206414Y-107377518D01*
X175254387Y-107326723D01*
X175322208Y-107309927D01*
X175388343Y-107332464D01*
X175417218Y-107360928D01*
X175417711Y-107361607D01*
X175417713Y-107361610D01*
X175514107Y-107494286D01*
X175538034Y-107527219D01*
X175682786Y-107671971D01*
X175832166Y-107780500D01*
X175848390Y-107792287D01*
X175964607Y-107851503D01*
X176030776Y-107885218D01*
X176030778Y-107885218D01*
X176030781Y-107885220D01*
X176135137Y-107919127D01*
X176225465Y-107948477D01*
X176326557Y-107964488D01*
X176427648Y-107980500D01*
X176427649Y-107980500D01*
X176632351Y-107980500D01*
X176632352Y-107980500D01*
X176834534Y-107948477D01*
X177029219Y-107885220D01*
X177211610Y-107792287D01*
X177338811Y-107699871D01*
X177377213Y-107671971D01*
X177377215Y-107671968D01*
X177377219Y-107671966D01*
X177521966Y-107527219D01*
X177521968Y-107527215D01*
X177521971Y-107527213D01*
X177642284Y-107361614D01*
X177642285Y-107361613D01*
X177642287Y-107361610D01*
X177689516Y-107268917D01*
X177737489Y-107218123D01*
X177805310Y-107201328D01*
X177871445Y-107223865D01*
X177910485Y-107268919D01*
X177957715Y-107361614D01*
X178078028Y-107527213D01*
X178222786Y-107671971D01*
X178372166Y-107780500D01*
X178388390Y-107792287D01*
X178504607Y-107851503D01*
X178570776Y-107885218D01*
X178570778Y-107885218D01*
X178570781Y-107885220D01*
X178675137Y-107919127D01*
X178765465Y-107948477D01*
X178866557Y-107964488D01*
X178967648Y-107980500D01*
X178967649Y-107980500D01*
X179172351Y-107980500D01*
X179172352Y-107980500D01*
X179374534Y-107948477D01*
X179569219Y-107885220D01*
X179751610Y-107792287D01*
X179878811Y-107699871D01*
X179917213Y-107671971D01*
X179917215Y-107671968D01*
X179917219Y-107671966D01*
X180061966Y-107527219D01*
X180061968Y-107527215D01*
X180061971Y-107527213D01*
X180114732Y-107454590D01*
X180182287Y-107361610D01*
X180275220Y-107179219D01*
X180338477Y-106984534D01*
X180370500Y-106782352D01*
X180370500Y-106593389D01*
X181379500Y-106593389D01*
X181379500Y-106766611D01*
X181406598Y-106937701D01*
X181460127Y-107102445D01*
X181538768Y-107256788D01*
X181640586Y-107396928D01*
X181763072Y-107519414D01*
X181903212Y-107621232D01*
X182057555Y-107699873D01*
X182222299Y-107753402D01*
X182393389Y-107780500D01*
X182393390Y-107780500D01*
X183366610Y-107780500D01*
X183366611Y-107780500D01*
X183537701Y-107753402D01*
X183702445Y-107699873D01*
X183856788Y-107621232D01*
X183996928Y-107519414D01*
X184119414Y-107396928D01*
X184221232Y-107256788D01*
X184299873Y-107102445D01*
X184353402Y-106937701D01*
X184380500Y-106766611D01*
X184380500Y-106593389D01*
X196619500Y-106593389D01*
X196619500Y-106766611D01*
X196646598Y-106937701D01*
X196700127Y-107102445D01*
X196778768Y-107256788D01*
X196880586Y-107396928D01*
X197003072Y-107519414D01*
X197143212Y-107621232D01*
X197297555Y-107699873D01*
X197462299Y-107753402D01*
X197633389Y-107780500D01*
X197633390Y-107780500D01*
X198606610Y-107780500D01*
X198606611Y-107780500D01*
X198777701Y-107753402D01*
X198942445Y-107699873D01*
X199096788Y-107621232D01*
X199236928Y-107519414D01*
X199359414Y-107396928D01*
X199461232Y-107256788D01*
X199539873Y-107102445D01*
X199593402Y-106937701D01*
X199620500Y-106766611D01*
X199620500Y-106593389D01*
X199593402Y-106422299D01*
X199539873Y-106257555D01*
X199461232Y-106103212D01*
X199359414Y-105963072D01*
X199236928Y-105840586D01*
X199096788Y-105738768D01*
X198942445Y-105660127D01*
X198777701Y-105606598D01*
X198777699Y-105606597D01*
X198777698Y-105606597D01*
X198646271Y-105585781D01*
X198606611Y-105579500D01*
X197633389Y-105579500D01*
X197593728Y-105585781D01*
X197462302Y-105606597D01*
X197297552Y-105660128D01*
X197143211Y-105738768D01*
X197063256Y-105796859D01*
X197003072Y-105840586D01*
X197003070Y-105840588D01*
X197003069Y-105840588D01*
X196880588Y-105963069D01*
X196880588Y-105963070D01*
X196880586Y-105963072D01*
X196854929Y-105998386D01*
X196778768Y-106103211D01*
X196700128Y-106257552D01*
X196646597Y-106422302D01*
X196623240Y-106569778D01*
X196619500Y-106593389D01*
X184380500Y-106593389D01*
X184353402Y-106422299D01*
X184299873Y-106257555D01*
X184221232Y-106103212D01*
X184119414Y-105963072D01*
X183996928Y-105840586D01*
X183856788Y-105738768D01*
X183702445Y-105660127D01*
X183537701Y-105606598D01*
X183537699Y-105606597D01*
X183537698Y-105606597D01*
X183406271Y-105585781D01*
X183366611Y-105579500D01*
X182393389Y-105579500D01*
X182353728Y-105585781D01*
X182222302Y-105606597D01*
X182057552Y-105660128D01*
X181903211Y-105738768D01*
X181823256Y-105796859D01*
X181763072Y-105840586D01*
X181763070Y-105840588D01*
X181763069Y-105840588D01*
X181640588Y-105963069D01*
X181640588Y-105963070D01*
X181640586Y-105963072D01*
X181614929Y-105998386D01*
X181538768Y-106103211D01*
X181460128Y-106257552D01*
X181406597Y-106422302D01*
X181383240Y-106569778D01*
X181379500Y-106593389D01*
X180370500Y-106593389D01*
X180370500Y-106577648D01*
X180338477Y-106375465D01*
X180275218Y-106180776D01*
X180241503Y-106114607D01*
X180182287Y-105998390D01*
X180144204Y-105945973D01*
X180061971Y-105832786D01*
X179917213Y-105688028D01*
X179751613Y-105567715D01*
X179751612Y-105567714D01*
X179751610Y-105567713D01*
X179692636Y-105537664D01*
X179569223Y-105474781D01*
X179374534Y-105411522D01*
X179188799Y-105382105D01*
X179172352Y-105379500D01*
X178967648Y-105379500D01*
X178951201Y-105382105D01*
X178765465Y-105411522D01*
X178570776Y-105474781D01*
X178388386Y-105567715D01*
X178222786Y-105688028D01*
X178078028Y-105832786D01*
X177957715Y-105998386D01*
X177910485Y-106091080D01*
X177862510Y-106141876D01*
X177794689Y-106158671D01*
X177728554Y-106136134D01*
X177689515Y-106091080D01*
X177688883Y-106089840D01*
X177642287Y-105998390D01*
X177604204Y-105945973D01*
X177521971Y-105832786D01*
X177377213Y-105688028D01*
X177211613Y-105567715D01*
X177211612Y-105567714D01*
X177211610Y-105567713D01*
X177152636Y-105537664D01*
X177029223Y-105474781D01*
X176834534Y-105411522D01*
X176648799Y-105382105D01*
X176632352Y-105379500D01*
X176427648Y-105379500D01*
X176411201Y-105382105D01*
X176225465Y-105411522D01*
X176030776Y-105474781D01*
X175848386Y-105567715D01*
X175682786Y-105688028D01*
X175538032Y-105832782D01*
X175538028Y-105832787D01*
X175417217Y-105999071D01*
X175361888Y-106041737D01*
X175292274Y-106047716D01*
X175230479Y-106015111D01*
X175206414Y-105982481D01*
X175187815Y-105945978D01*
X175187813Y-105945975D01*
X175187812Y-105945973D01*
X175058247Y-105767641D01*
X175058243Y-105767636D01*
X174902363Y-105611756D01*
X174902358Y-105611752D01*
X174724025Y-105482187D01*
X174724024Y-105482186D01*
X174724022Y-105482185D01*
X174606791Y-105422452D01*
X174527606Y-105382104D01*
X174527603Y-105382103D01*
X174317952Y-105313985D01*
X174209086Y-105296742D01*
X174100222Y-105279500D01*
X173879778Y-105279500D01*
X173807201Y-105290995D01*
X173662047Y-105313985D01*
X173452396Y-105382103D01*
X173452393Y-105382104D01*
X173255974Y-105482187D01*
X173077641Y-105611752D01*
X173077636Y-105611756D01*
X173027463Y-105661929D01*
X172966140Y-105695413D01*
X172896448Y-105690428D01*
X172840515Y-105648557D01*
X172823601Y-105617580D01*
X172793797Y-105537671D01*
X172793793Y-105537664D01*
X172707547Y-105422455D01*
X172707544Y-105422452D01*
X172592335Y-105336206D01*
X172592328Y-105336202D01*
X172457482Y-105285908D01*
X172457483Y-105285908D01*
X172397883Y-105279501D01*
X172397881Y-105279500D01*
X172397873Y-105279500D01*
X172397864Y-105279500D01*
X170502129Y-105279500D01*
X170502123Y-105279501D01*
X170442516Y-105285908D01*
X170307671Y-105336202D01*
X170307664Y-105336206D01*
X170192455Y-105422452D01*
X170192452Y-105422455D01*
X170106206Y-105537664D01*
X170106202Y-105537671D01*
X170055908Y-105672517D01*
X170049501Y-105732116D01*
X170049500Y-105732135D01*
X162322742Y-105732135D01*
X162202363Y-105611756D01*
X162202358Y-105611752D01*
X162024025Y-105482187D01*
X162024024Y-105482186D01*
X162024022Y-105482185D01*
X161906791Y-105422452D01*
X161827606Y-105382104D01*
X161827603Y-105382103D01*
X161617952Y-105313985D01*
X161509086Y-105296742D01*
X161400222Y-105279500D01*
X161179778Y-105279500D01*
X161107201Y-105290995D01*
X160962047Y-105313985D01*
X160752396Y-105382103D01*
X160752393Y-105382104D01*
X160555974Y-105482187D01*
X160377641Y-105611752D01*
X160377636Y-105611756D01*
X160327463Y-105661929D01*
X160266140Y-105695413D01*
X160196448Y-105690428D01*
X160140515Y-105648557D01*
X160123601Y-105617580D01*
X160093797Y-105537671D01*
X160093793Y-105537664D01*
X160007547Y-105422455D01*
X160007544Y-105422452D01*
X159892335Y-105336206D01*
X159892328Y-105336202D01*
X159757482Y-105285908D01*
X159757483Y-105285908D01*
X159697883Y-105279501D01*
X159697881Y-105279500D01*
X159697873Y-105279500D01*
X159697864Y-105279500D01*
X157802129Y-105279500D01*
X157802123Y-105279501D01*
X157742516Y-105285908D01*
X157607671Y-105336202D01*
X157607664Y-105336206D01*
X157492455Y-105422452D01*
X157492452Y-105422455D01*
X157406206Y-105537664D01*
X157406202Y-105537671D01*
X157355908Y-105672517D01*
X157349501Y-105732116D01*
X157349500Y-105732135D01*
X154170500Y-105732135D01*
X154170500Y-100232648D01*
X157454500Y-100232648D01*
X157454500Y-100437351D01*
X157486522Y-100639534D01*
X157549781Y-100834223D01*
X157613691Y-100959653D01*
X157642585Y-101016359D01*
X157642715Y-101016613D01*
X157763028Y-101182213D01*
X157763034Y-101182219D01*
X157907781Y-101326966D01*
X158001452Y-101395021D01*
X158044117Y-101450350D01*
X158050096Y-101519963D01*
X158017491Y-101581759D01*
X157967571Y-101613045D01*
X157885666Y-101640186D01*
X157885663Y-101640187D01*
X157736342Y-101732289D01*
X157612289Y-101856342D01*
X157520187Y-102005663D01*
X157520186Y-102005666D01*
X157465001Y-102172203D01*
X157465001Y-102172204D01*
X157465000Y-102172204D01*
X157454500Y-102274983D01*
X157454500Y-103475001D01*
X157454501Y-103475018D01*
X157465000Y-103577796D01*
X157465001Y-103577799D01*
X157511311Y-103717552D01*
X157520186Y-103744334D01*
X157612288Y-103893656D01*
X157736344Y-104017712D01*
X157885666Y-104109814D01*
X158052203Y-104164999D01*
X158154991Y-104175500D01*
X159355008Y-104175499D01*
X159457797Y-104164999D01*
X159624334Y-104109814D01*
X159773656Y-104017712D01*
X159897712Y-103893656D01*
X159989814Y-103744334D01*
X160044999Y-103577797D01*
X160055500Y-103475009D01*
X160055499Y-102772648D01*
X165074500Y-102772648D01*
X165074500Y-102977351D01*
X165106522Y-103179534D01*
X165169781Y-103374223D01*
X165262715Y-103556613D01*
X165383028Y-103722213D01*
X165527786Y-103866971D01*
X165639588Y-103948198D01*
X165693390Y-103987287D01*
X165809607Y-104046503D01*
X165875776Y-104080218D01*
X165875778Y-104080218D01*
X165875781Y-104080220D01*
X165966856Y-104109812D01*
X166070465Y-104143477D01*
X166171557Y-104159488D01*
X166272648Y-104175500D01*
X166272649Y-104175500D01*
X166477351Y-104175500D01*
X166477352Y-104175500D01*
X166679534Y-104143477D01*
X166874219Y-104080220D01*
X166926878Y-104053389D01*
X181379500Y-104053389D01*
X181379500Y-104226611D01*
X181406598Y-104397701D01*
X181460127Y-104562445D01*
X181538768Y-104716788D01*
X181640586Y-104856928D01*
X181763072Y-104979414D01*
X181903212Y-105081232D01*
X182057555Y-105159873D01*
X182222299Y-105213402D01*
X182393389Y-105240500D01*
X182393390Y-105240500D01*
X183366610Y-105240500D01*
X183366611Y-105240500D01*
X183537701Y-105213402D01*
X183702445Y-105159873D01*
X183856788Y-105081232D01*
X183996928Y-104979414D01*
X184119414Y-104856928D01*
X184221232Y-104716788D01*
X184299873Y-104562445D01*
X184353402Y-104397701D01*
X184380500Y-104226611D01*
X184380500Y-104053389D01*
X196619500Y-104053389D01*
X196619500Y-104226611D01*
X196646598Y-104397701D01*
X196700127Y-104562445D01*
X196778768Y-104716788D01*
X196880586Y-104856928D01*
X197003072Y-104979414D01*
X197143212Y-105081232D01*
X197297555Y-105159873D01*
X197462299Y-105213402D01*
X197633389Y-105240500D01*
X197633390Y-105240500D01*
X198606610Y-105240500D01*
X198606611Y-105240500D01*
X198777701Y-105213402D01*
X198942445Y-105159873D01*
X199096788Y-105081232D01*
X199236928Y-104979414D01*
X199359414Y-104856928D01*
X199461232Y-104716788D01*
X199539873Y-104562445D01*
X199593402Y-104397701D01*
X199620500Y-104226611D01*
X199620500Y-104053389D01*
X199593402Y-103882299D01*
X199539873Y-103717555D01*
X199461232Y-103563212D01*
X199359414Y-103423072D01*
X199236928Y-103300586D01*
X199096788Y-103198768D01*
X198942445Y-103120127D01*
X198777701Y-103066598D01*
X198777699Y-103066597D01*
X198777698Y-103066597D01*
X198646271Y-103045781D01*
X198606611Y-103039500D01*
X197633389Y-103039500D01*
X197593728Y-103045781D01*
X197462302Y-103066597D01*
X197297552Y-103120128D01*
X197143211Y-103198768D01*
X197063256Y-103256859D01*
X197003072Y-103300586D01*
X197003070Y-103300588D01*
X197003069Y-103300588D01*
X196880588Y-103423069D01*
X196880588Y-103423070D01*
X196880586Y-103423072D01*
X196842846Y-103475016D01*
X196778768Y-103563211D01*
X196700128Y-103717552D01*
X196646597Y-103882302D01*
X196625151Y-104017710D01*
X196619500Y-104053389D01*
X184380500Y-104053389D01*
X184353402Y-103882299D01*
X184299873Y-103717555D01*
X184221232Y-103563212D01*
X184119414Y-103423072D01*
X183996928Y-103300586D01*
X183856788Y-103198768D01*
X183702445Y-103120127D01*
X183537701Y-103066598D01*
X183537699Y-103066597D01*
X183537698Y-103066597D01*
X183406271Y-103045781D01*
X183366611Y-103039500D01*
X182393389Y-103039500D01*
X182353728Y-103045781D01*
X182222302Y-103066597D01*
X182057552Y-103120128D01*
X181903211Y-103198768D01*
X181823256Y-103256859D01*
X181763072Y-103300586D01*
X181763070Y-103300588D01*
X181763069Y-103300588D01*
X181640588Y-103423069D01*
X181640588Y-103423070D01*
X181640586Y-103423072D01*
X181602846Y-103475016D01*
X181538768Y-103563211D01*
X181460128Y-103717552D01*
X181406597Y-103882302D01*
X181385151Y-104017710D01*
X181379500Y-104053389D01*
X166926878Y-104053389D01*
X167056610Y-103987287D01*
X167110412Y-103948198D01*
X167110414Y-103948197D01*
X167222212Y-103866971D01*
X167222210Y-103866971D01*
X167222219Y-103866966D01*
X167366966Y-103722219D01*
X167366968Y-103722215D01*
X167366971Y-103722213D01*
X167471892Y-103577799D01*
X167487287Y-103556610D01*
X167580220Y-103374219D01*
X167643477Y-103179534D01*
X167675500Y-102977352D01*
X167675500Y-102772648D01*
X167659781Y-102673402D01*
X167643477Y-102570465D01*
X167606766Y-102457482D01*
X167580220Y-102375781D01*
X167580218Y-102375778D01*
X167580218Y-102375776D01*
X167528865Y-102274991D01*
X167487287Y-102193390D01*
X167471892Y-102172200D01*
X167366971Y-102027786D01*
X167222213Y-101883028D01*
X167056611Y-101762713D01*
X166963369Y-101715203D01*
X166912574Y-101667229D01*
X166895779Y-101599407D01*
X166918317Y-101533273D01*
X166963371Y-101494234D01*
X167056346Y-101446861D01*
X167056347Y-101446861D01*
X167100921Y-101414474D01*
X166421447Y-100735000D01*
X166427661Y-100735000D01*
X166529394Y-100707741D01*
X166620606Y-100655080D01*
X166695080Y-100580606D01*
X166747741Y-100489394D01*
X166775000Y-100387661D01*
X166775000Y-100381448D01*
X167454474Y-101060922D01*
X167454474Y-101060921D01*
X167486859Y-101016349D01*
X167579755Y-100834031D01*
X167642990Y-100639417D01*
X167675000Y-100437317D01*
X167675000Y-100232682D01*
X167642990Y-100030582D01*
X167579755Y-99835968D01*
X167486859Y-99653650D01*
X167454474Y-99609077D01*
X167454474Y-99609076D01*
X166775000Y-100288551D01*
X166775000Y-100282339D01*
X166747741Y-100180606D01*
X166695080Y-100089394D01*
X166620606Y-100014920D01*
X166529394Y-99962259D01*
X166427661Y-99935000D01*
X166421446Y-99935000D01*
X167100922Y-99255524D01*
X167100921Y-99255523D01*
X167056359Y-99223147D01*
X167056350Y-99223141D01*
X166874031Y-99130244D01*
X166702906Y-99074642D01*
X166679417Y-99067009D01*
X166477317Y-99035000D01*
X166272683Y-99035000D01*
X166070582Y-99067009D01*
X165875968Y-99130244D01*
X165693644Y-99223143D01*
X165649077Y-99255523D01*
X165649077Y-99255524D01*
X166328554Y-99935000D01*
X166322339Y-99935000D01*
X166220606Y-99962259D01*
X166129394Y-100014920D01*
X166054920Y-100089394D01*
X166002259Y-100180606D01*
X165975000Y-100282339D01*
X165975000Y-100288553D01*
X165295524Y-99609077D01*
X165295523Y-99609077D01*
X165263143Y-99653644D01*
X165170244Y-99835968D01*
X165107009Y-100030582D01*
X165075000Y-100232682D01*
X165075000Y-100437317D01*
X165107009Y-100639417D01*
X165170244Y-100834031D01*
X165263141Y-101016350D01*
X165263147Y-101016359D01*
X165295523Y-101060921D01*
X165295524Y-101060922D01*
X165975000Y-100381446D01*
X165975000Y-100387661D01*
X166002259Y-100489394D01*
X166054920Y-100580606D01*
X166129394Y-100655080D01*
X166220606Y-100707741D01*
X166322339Y-100735000D01*
X166328553Y-100735000D01*
X165649076Y-101414474D01*
X165693652Y-101446861D01*
X165786628Y-101494234D01*
X165837425Y-101542208D01*
X165854220Y-101610029D01*
X165831683Y-101676164D01*
X165786630Y-101715203D01*
X165693388Y-101762713D01*
X165527786Y-101883028D01*
X165383028Y-102027786D01*
X165262715Y-102193386D01*
X165169781Y-102375776D01*
X165106522Y-102570465D01*
X165074500Y-102772648D01*
X160055499Y-102772648D01*
X160055499Y-102274992D01*
X160044999Y-102172203D01*
X159989814Y-102005666D01*
X159897712Y-101856344D01*
X159773656Y-101732288D01*
X159624334Y-101640186D01*
X159542427Y-101613044D01*
X159484984Y-101573272D01*
X159458161Y-101508756D01*
X159470476Y-101439980D01*
X159508547Y-101395021D01*
X159602219Y-101326966D01*
X159746966Y-101182219D01*
X159746968Y-101182215D01*
X159746971Y-101182213D01*
X159799732Y-101109590D01*
X159867287Y-101016610D01*
X159960220Y-100834219D01*
X160023477Y-100639534D01*
X160055500Y-100437352D01*
X160055500Y-100232648D01*
X160039781Y-100133402D01*
X160023477Y-100030465D01*
X159992458Y-99935000D01*
X159960220Y-99835781D01*
X159960218Y-99835778D01*
X159960218Y-99835776D01*
X159867419Y-99653650D01*
X159867287Y-99653390D01*
X159835092Y-99609077D01*
X159746971Y-99487786D01*
X159602213Y-99343028D01*
X159436613Y-99222715D01*
X159436612Y-99222714D01*
X159436610Y-99222713D01*
X159379653Y-99193691D01*
X159254223Y-99129781D01*
X159059534Y-99066522D01*
X158884995Y-99038878D01*
X158857352Y-99034500D01*
X158652648Y-99034500D01*
X158628329Y-99038351D01*
X158450465Y-99066522D01*
X158255776Y-99129781D01*
X158073386Y-99222715D01*
X157907786Y-99343028D01*
X157763028Y-99487786D01*
X157642715Y-99653386D01*
X157549781Y-99835776D01*
X157486522Y-100030465D01*
X157454500Y-100232648D01*
X154170500Y-100232648D01*
X154170500Y-98961577D01*
X168929500Y-98961577D01*
X168929500Y-99158422D01*
X168960290Y-99352826D01*
X169021117Y-99540029D01*
X169078876Y-99653386D01*
X169110476Y-99715405D01*
X169226172Y-99874646D01*
X169365354Y-100013828D01*
X169518621Y-100125184D01*
X169561285Y-100180512D01*
X169567264Y-100250125D01*
X169534658Y-100311920D01*
X169473819Y-100346278D01*
X169445736Y-100349500D01*
X169382130Y-100349500D01*
X169382123Y-100349501D01*
X169322516Y-100355908D01*
X169187671Y-100406202D01*
X169187664Y-100406206D01*
X169072455Y-100492452D01*
X169072452Y-100492455D01*
X168986206Y-100607664D01*
X168986202Y-100607671D01*
X168935908Y-100742517D01*
X168929501Y-100802116D01*
X168929501Y-100802123D01*
X168929500Y-100802135D01*
X168929500Y-102397870D01*
X168929501Y-102397876D01*
X168935908Y-102457483D01*
X168986202Y-102592328D01*
X168986206Y-102592335D01*
X169072452Y-102707544D01*
X169072455Y-102707547D01*
X169187664Y-102793793D01*
X169187671Y-102793797D01*
X169322517Y-102844091D01*
X169322516Y-102844091D01*
X169329444Y-102844835D01*
X169382127Y-102850500D01*
X170977872Y-102850499D01*
X171037483Y-102844091D01*
X171172331Y-102793796D01*
X171287546Y-102707546D01*
X171373796Y-102592331D01*
X171424091Y-102457483D01*
X171430500Y-102397873D01*
X171430499Y-101513389D01*
X181379500Y-101513389D01*
X181379500Y-101686610D01*
X181406382Y-101856342D01*
X181406598Y-101857701D01*
X181460127Y-102022445D01*
X181538768Y-102176788D01*
X181640586Y-102316928D01*
X181763072Y-102439414D01*
X181903212Y-102541232D01*
X182057555Y-102619873D01*
X182222299Y-102673402D01*
X182393389Y-102700500D01*
X182393390Y-102700500D01*
X183366610Y-102700500D01*
X183366611Y-102700500D01*
X183537701Y-102673402D01*
X183702445Y-102619873D01*
X183856788Y-102541232D01*
X183996928Y-102439414D01*
X184119414Y-102316928D01*
X184221232Y-102176788D01*
X184299873Y-102022445D01*
X184353402Y-101857701D01*
X184380500Y-101686611D01*
X184380500Y-101513389D01*
X196619500Y-101513389D01*
X196619500Y-101686610D01*
X196646382Y-101856342D01*
X196646598Y-101857701D01*
X196700127Y-102022445D01*
X196778768Y-102176788D01*
X196880586Y-102316928D01*
X197003072Y-102439414D01*
X197143212Y-102541232D01*
X197297555Y-102619873D01*
X197462299Y-102673402D01*
X197633389Y-102700500D01*
X197633390Y-102700500D01*
X198606610Y-102700500D01*
X198606611Y-102700500D01*
X198777701Y-102673402D01*
X198942445Y-102619873D01*
X199096788Y-102541232D01*
X199236928Y-102439414D01*
X199359414Y-102316928D01*
X199461232Y-102176788D01*
X199539873Y-102022445D01*
X199593402Y-101857701D01*
X199620500Y-101686611D01*
X199620500Y-101513389D01*
X199593402Y-101342299D01*
X199539873Y-101177555D01*
X199461232Y-101023212D01*
X199359414Y-100883072D01*
X199236928Y-100760586D01*
X199096788Y-100658768D01*
X198942445Y-100580127D01*
X198777701Y-100526598D01*
X198777699Y-100526597D01*
X198777698Y-100526597D01*
X198646271Y-100505781D01*
X198606611Y-100499500D01*
X197633389Y-100499500D01*
X197593728Y-100505781D01*
X197462302Y-100526597D01*
X197297552Y-100580128D01*
X197143211Y-100658768D01*
X197075807Y-100707741D01*
X197003072Y-100760586D01*
X197003070Y-100760588D01*
X197003069Y-100760588D01*
X196880588Y-100883069D01*
X196880588Y-100883070D01*
X196880586Y-100883072D01*
X196836859Y-100943256D01*
X196778768Y-101023211D01*
X196700128Y-101177552D01*
X196646597Y-101342302D01*
X196619500Y-101513389D01*
X184380500Y-101513389D01*
X184353402Y-101342299D01*
X184299873Y-101177555D01*
X184221232Y-101023212D01*
X184119414Y-100883072D01*
X183996928Y-100760586D01*
X183856788Y-100658768D01*
X183702445Y-100580127D01*
X183537701Y-100526598D01*
X183537699Y-100526597D01*
X183537698Y-100526597D01*
X183406271Y-100505781D01*
X183366611Y-100499500D01*
X182393389Y-100499500D01*
X182353728Y-100505781D01*
X182222302Y-100526597D01*
X182057552Y-100580128D01*
X181903211Y-100658768D01*
X181835807Y-100707741D01*
X181763072Y-100760586D01*
X181763070Y-100760588D01*
X181763069Y-100760588D01*
X181640588Y-100883069D01*
X181640588Y-100883070D01*
X181640586Y-100883072D01*
X181596859Y-100943256D01*
X181538768Y-101023211D01*
X181460128Y-101177552D01*
X181406597Y-101342302D01*
X181379500Y-101513389D01*
X171430499Y-101513389D01*
X171430499Y-100802128D01*
X171424091Y-100742517D01*
X171421287Y-100735000D01*
X171373797Y-100607671D01*
X171373793Y-100607664D01*
X171287547Y-100492455D01*
X171287544Y-100492452D01*
X171172335Y-100406206D01*
X171172328Y-100406202D01*
X171037482Y-100355908D01*
X171037483Y-100355908D01*
X170977883Y-100349501D01*
X170977881Y-100349500D01*
X170977873Y-100349500D01*
X170977865Y-100349500D01*
X170914267Y-100349500D01*
X170847228Y-100329815D01*
X170801473Y-100277011D01*
X170791529Y-100207853D01*
X170820554Y-100144297D01*
X170841381Y-100125182D01*
X170994646Y-100013828D01*
X171133828Y-99874646D01*
X171249524Y-99715405D01*
X171338884Y-99540025D01*
X171399709Y-99352826D01*
X171420249Y-99223141D01*
X171430500Y-99158422D01*
X171430500Y-98973389D01*
X181379500Y-98973389D01*
X181379500Y-99146611D01*
X181406598Y-99317701D01*
X181460127Y-99482445D01*
X181538768Y-99636788D01*
X181640586Y-99776928D01*
X181763072Y-99899414D01*
X181903212Y-100001232D01*
X182057555Y-100079873D01*
X182222299Y-100133402D01*
X182393389Y-100160500D01*
X182393390Y-100160500D01*
X183366610Y-100160500D01*
X183366611Y-100160500D01*
X183537701Y-100133402D01*
X183702445Y-100079873D01*
X183856788Y-100001232D01*
X183996928Y-99899414D01*
X184119414Y-99776928D01*
X184221232Y-99636788D01*
X184299873Y-99482445D01*
X184353402Y-99317701D01*
X184380500Y-99146611D01*
X184380500Y-98973389D01*
X196619500Y-98973389D01*
X196619500Y-99146611D01*
X196646598Y-99317701D01*
X196700127Y-99482445D01*
X196778768Y-99636788D01*
X196880586Y-99776928D01*
X197003072Y-99899414D01*
X197143212Y-100001232D01*
X197297555Y-100079873D01*
X197462299Y-100133402D01*
X197633389Y-100160500D01*
X197633390Y-100160500D01*
X198606610Y-100160500D01*
X198606611Y-100160500D01*
X198777701Y-100133402D01*
X198942445Y-100079873D01*
X199096788Y-100001232D01*
X199236928Y-99899414D01*
X199359414Y-99776928D01*
X199461232Y-99636788D01*
X199539873Y-99482445D01*
X199593402Y-99317701D01*
X199620500Y-99146611D01*
X199620500Y-98973389D01*
X199593402Y-98802299D01*
X199539873Y-98637555D01*
X199461232Y-98483212D01*
X199359414Y-98343072D01*
X199236928Y-98220586D01*
X199096788Y-98118768D01*
X198942445Y-98040127D01*
X198777701Y-97986598D01*
X198777699Y-97986597D01*
X198777698Y-97986597D01*
X198646271Y-97965781D01*
X198606611Y-97959500D01*
X197633389Y-97959500D01*
X197593728Y-97965781D01*
X197462302Y-97986597D01*
X197297552Y-98040128D01*
X197143211Y-98118768D01*
X197063256Y-98176859D01*
X197003072Y-98220586D01*
X197003070Y-98220588D01*
X197003069Y-98220588D01*
X196880588Y-98343069D01*
X196880588Y-98343070D01*
X196880586Y-98343072D01*
X196836859Y-98403256D01*
X196778768Y-98483211D01*
X196700128Y-98637552D01*
X196646597Y-98802302D01*
X196621371Y-98961577D01*
X196619500Y-98973389D01*
X184380500Y-98973389D01*
X184353402Y-98802299D01*
X184299873Y-98637555D01*
X184221232Y-98483212D01*
X184119414Y-98343072D01*
X183996928Y-98220586D01*
X183856788Y-98118768D01*
X183702445Y-98040127D01*
X183537701Y-97986598D01*
X183537699Y-97986597D01*
X183537698Y-97986597D01*
X183406271Y-97965781D01*
X183366611Y-97959500D01*
X182393389Y-97959500D01*
X182353728Y-97965781D01*
X182222302Y-97986597D01*
X182057552Y-98040128D01*
X181903211Y-98118768D01*
X181823256Y-98176859D01*
X181763072Y-98220586D01*
X181763070Y-98220588D01*
X181763069Y-98220588D01*
X181640588Y-98343069D01*
X181640588Y-98343070D01*
X181640586Y-98343072D01*
X181596859Y-98403256D01*
X181538768Y-98483211D01*
X181460128Y-98637552D01*
X181406597Y-98802302D01*
X181381371Y-98961577D01*
X181379500Y-98973389D01*
X171430500Y-98973389D01*
X171430500Y-98961577D01*
X171399709Y-98767173D01*
X171338882Y-98579970D01*
X171249523Y-98404594D01*
X171133828Y-98245354D01*
X170994646Y-98106172D01*
X170835405Y-97990476D01*
X170660025Y-97901116D01*
X170660024Y-97901115D01*
X170658235Y-97900204D01*
X170607439Y-97852230D01*
X170590644Y-97784409D01*
X170613181Y-97718274D01*
X170658236Y-97679234D01*
X170835141Y-97589097D01*
X170870125Y-97563678D01*
X170870126Y-97563678D01*
X170226448Y-96920000D01*
X170232661Y-96920000D01*
X170334394Y-96892741D01*
X170425606Y-96840080D01*
X170500080Y-96765606D01*
X170552741Y-96674394D01*
X170580000Y-96572661D01*
X170580000Y-96566447D01*
X171223678Y-97210126D01*
X171223678Y-97210125D01*
X171249095Y-97175143D01*
X171338418Y-96999835D01*
X171399221Y-96812705D01*
X171430000Y-96618382D01*
X171430000Y-96421625D01*
X171429998Y-96421609D01*
X171429371Y-96417648D01*
X175229500Y-96417648D01*
X175229500Y-96622351D01*
X175261522Y-96824534D01*
X175324781Y-97019223D01*
X175388691Y-97144653D01*
X175404228Y-97175145D01*
X175417715Y-97201613D01*
X175538028Y-97367213D01*
X175682786Y-97511971D01*
X175832166Y-97620500D01*
X175848390Y-97632287D01*
X175940529Y-97679234D01*
X176030776Y-97725218D01*
X176030778Y-97725218D01*
X176030781Y-97725220D01*
X176135137Y-97759127D01*
X176225465Y-97788477D01*
X176266839Y-97795030D01*
X176427648Y-97820500D01*
X176427649Y-97820500D01*
X176632351Y-97820500D01*
X176632352Y-97820500D01*
X176834534Y-97788477D01*
X177029219Y-97725220D01*
X177211610Y-97632287D01*
X177338811Y-97539871D01*
X177377213Y-97511971D01*
X177377215Y-97511968D01*
X177377219Y-97511966D01*
X177521966Y-97367219D01*
X177521968Y-97367215D01*
X177521971Y-97367213D01*
X177636100Y-97210126D01*
X177642287Y-97201610D01*
X177689516Y-97108917D01*
X177737489Y-97058123D01*
X177805310Y-97041328D01*
X177871445Y-97063865D01*
X177910483Y-97108917D01*
X177954348Y-97195006D01*
X177957715Y-97201614D01*
X178078028Y-97367213D01*
X178222786Y-97511971D01*
X178372166Y-97620500D01*
X178388390Y-97632287D01*
X178480529Y-97679234D01*
X178570776Y-97725218D01*
X178570778Y-97725218D01*
X178570781Y-97725220D01*
X178675137Y-97759127D01*
X178765465Y-97788477D01*
X178806839Y-97795030D01*
X178967648Y-97820500D01*
X178967649Y-97820500D01*
X179172351Y-97820500D01*
X179172352Y-97820500D01*
X179374534Y-97788477D01*
X179569219Y-97725220D01*
X179751610Y-97632287D01*
X179878811Y-97539871D01*
X179917213Y-97511971D01*
X179917215Y-97511968D01*
X179917219Y-97511966D01*
X180061966Y-97367219D01*
X180061968Y-97367215D01*
X180061971Y-97367213D01*
X180114732Y-97294590D01*
X180182287Y-97201610D01*
X180275220Y-97019219D01*
X180338477Y-96824534D01*
X180370500Y-96622352D01*
X180370500Y-96433389D01*
X181379500Y-96433389D01*
X181379500Y-96606611D01*
X181406598Y-96777701D01*
X181460127Y-96942445D01*
X181538768Y-97096788D01*
X181640586Y-97236928D01*
X181763072Y-97359414D01*
X181903212Y-97461232D01*
X182057555Y-97539873D01*
X182222299Y-97593402D01*
X182393389Y-97620500D01*
X182393390Y-97620500D01*
X183366610Y-97620500D01*
X183366611Y-97620500D01*
X183537701Y-97593402D01*
X183702445Y-97539873D01*
X183856788Y-97461232D01*
X183996928Y-97359414D01*
X184119414Y-97236928D01*
X184221232Y-97096788D01*
X184299873Y-96942445D01*
X184353402Y-96777701D01*
X184380500Y-96606611D01*
X184380500Y-96433389D01*
X196619500Y-96433389D01*
X196619500Y-96606611D01*
X196646598Y-96777701D01*
X196700127Y-96942445D01*
X196778768Y-97096788D01*
X196880586Y-97236928D01*
X197003072Y-97359414D01*
X197143212Y-97461232D01*
X197297555Y-97539873D01*
X197462299Y-97593402D01*
X197633389Y-97620500D01*
X197633390Y-97620500D01*
X198606610Y-97620500D01*
X198606611Y-97620500D01*
X198777701Y-97593402D01*
X198942445Y-97539873D01*
X199096788Y-97461232D01*
X199236928Y-97359414D01*
X199359414Y-97236928D01*
X199461232Y-97096788D01*
X199539873Y-96942445D01*
X199593402Y-96777701D01*
X199620500Y-96606611D01*
X199620500Y-96433389D01*
X199593402Y-96262299D01*
X199539873Y-96097555D01*
X199461232Y-95943212D01*
X199359414Y-95803072D01*
X199236928Y-95680586D01*
X199096788Y-95578768D01*
X198942445Y-95500127D01*
X198777701Y-95446598D01*
X198777699Y-95446597D01*
X198777698Y-95446597D01*
X198646271Y-95425781D01*
X198606611Y-95419500D01*
X197633389Y-95419500D01*
X197593728Y-95425781D01*
X197462302Y-95446597D01*
X197297552Y-95500128D01*
X197143211Y-95578768D01*
X197063256Y-95636859D01*
X197003072Y-95680586D01*
X197003070Y-95680588D01*
X197003069Y-95680588D01*
X196880588Y-95803069D01*
X196880588Y-95803070D01*
X196880586Y-95803072D01*
X196861115Y-95829872D01*
X196778768Y-95943211D01*
X196700128Y-96097552D01*
X196646597Y-96262302D01*
X196621363Y-96421625D01*
X196619500Y-96433389D01*
X184380500Y-96433389D01*
X184353402Y-96262299D01*
X184299873Y-96097555D01*
X184221232Y-95943212D01*
X184119414Y-95803072D01*
X183996928Y-95680586D01*
X183856788Y-95578768D01*
X183702445Y-95500127D01*
X183537701Y-95446598D01*
X183537699Y-95446597D01*
X183537698Y-95446597D01*
X183406271Y-95425781D01*
X183366611Y-95419500D01*
X182393389Y-95419500D01*
X182353728Y-95425781D01*
X182222302Y-95446597D01*
X182057552Y-95500128D01*
X181903211Y-95578768D01*
X181823256Y-95636859D01*
X181763072Y-95680586D01*
X181763070Y-95680588D01*
X181763069Y-95680588D01*
X181640588Y-95803069D01*
X181640588Y-95803070D01*
X181640586Y-95803072D01*
X181621115Y-95829872D01*
X181538768Y-95943211D01*
X181460128Y-96097552D01*
X181406597Y-96262302D01*
X181381363Y-96421625D01*
X181379500Y-96433389D01*
X180370500Y-96433389D01*
X180370500Y-96417648D01*
X180350652Y-96292335D01*
X180338477Y-96215465D01*
X180288534Y-96061758D01*
X180275220Y-96020781D01*
X180275218Y-96020778D01*
X180275218Y-96020776D01*
X180241503Y-95954607D01*
X180182287Y-95838390D01*
X180125656Y-95760443D01*
X180061971Y-95672786D01*
X179917213Y-95528028D01*
X179751614Y-95407715D01*
X179745006Y-95404348D01*
X179658917Y-95360483D01*
X179608123Y-95312511D01*
X179591328Y-95244690D01*
X179613865Y-95178555D01*
X179658917Y-95139516D01*
X179751610Y-95092287D01*
X179805131Y-95053402D01*
X179917213Y-94971971D01*
X179917215Y-94971968D01*
X179917219Y-94971966D01*
X180061966Y-94827219D01*
X180061968Y-94827215D01*
X180061971Y-94827213D01*
X180125657Y-94739555D01*
X180182287Y-94661610D01*
X180275220Y-94479219D01*
X180338477Y-94284534D01*
X180370500Y-94082352D01*
X180370500Y-93893389D01*
X181379500Y-93893389D01*
X181379500Y-94066610D01*
X181401841Y-94207671D01*
X181406598Y-94237701D01*
X181460127Y-94402445D01*
X181538768Y-94556788D01*
X181640586Y-94696928D01*
X181763072Y-94819414D01*
X181903212Y-94921232D01*
X182057555Y-94999873D01*
X182222299Y-95053402D01*
X182393389Y-95080500D01*
X182393390Y-95080500D01*
X183366610Y-95080500D01*
X183366611Y-95080500D01*
X183537701Y-95053402D01*
X183702445Y-94999873D01*
X183856788Y-94921232D01*
X183996928Y-94819414D01*
X184062319Y-94754023D01*
X184123642Y-94720538D01*
X184193334Y-94725522D01*
X184237681Y-94754023D01*
X184303072Y-94819414D01*
X184443212Y-94921232D01*
X184597555Y-94999873D01*
X184762299Y-95053402D01*
X184933389Y-95080500D01*
X184933390Y-95080500D01*
X185906610Y-95080500D01*
X185906611Y-95080500D01*
X186077701Y-95053402D01*
X186242445Y-94999873D01*
X186396788Y-94921232D01*
X186536928Y-94819414D01*
X186659414Y-94696928D01*
X186761232Y-94556788D01*
X186839873Y-94402445D01*
X186893402Y-94237701D01*
X186920500Y-94066611D01*
X186920500Y-93893389D01*
X188999500Y-93893389D01*
X188999500Y-94066610D01*
X189021841Y-94207671D01*
X189026598Y-94237701D01*
X189080127Y-94402445D01*
X189158768Y-94556788D01*
X189260586Y-94696928D01*
X189383072Y-94819414D01*
X189523212Y-94921232D01*
X189677555Y-94999873D01*
X189842299Y-95053402D01*
X190013389Y-95080500D01*
X190013390Y-95080500D01*
X190986610Y-95080500D01*
X190986611Y-95080500D01*
X191157701Y-95053402D01*
X191322445Y-94999873D01*
X191476788Y-94921232D01*
X191616928Y-94819414D01*
X191682319Y-94754023D01*
X191743642Y-94720538D01*
X191813334Y-94725522D01*
X191857681Y-94754023D01*
X191923072Y-94819414D01*
X192063212Y-94921232D01*
X192217555Y-94999873D01*
X192382299Y-95053402D01*
X192553389Y-95080500D01*
X192553390Y-95080500D01*
X193526610Y-95080500D01*
X193526611Y-95080500D01*
X193697701Y-95053402D01*
X193862445Y-94999873D01*
X194016788Y-94921232D01*
X194156928Y-94819414D01*
X194279414Y-94696928D01*
X194381232Y-94556788D01*
X194459873Y-94402445D01*
X194513402Y-94237701D01*
X194540500Y-94066611D01*
X194540500Y-93893389D01*
X196619500Y-93893389D01*
X196619500Y-94066610D01*
X196641841Y-94207671D01*
X196646598Y-94237701D01*
X196700127Y-94402445D01*
X196778768Y-94556788D01*
X196880586Y-94696928D01*
X197003072Y-94819414D01*
X197143212Y-94921232D01*
X197297555Y-94999873D01*
X197462299Y-95053402D01*
X197633389Y-95080500D01*
X197633390Y-95080500D01*
X198606610Y-95080500D01*
X198606611Y-95080500D01*
X198777701Y-95053402D01*
X198942445Y-94999873D01*
X199096788Y-94921232D01*
X199236928Y-94819414D01*
X199359414Y-94696928D01*
X199461232Y-94556788D01*
X199539873Y-94402445D01*
X199593402Y-94237701D01*
X199620500Y-94066611D01*
X199620500Y-93893389D01*
X199593402Y-93722299D01*
X199539873Y-93557555D01*
X199461232Y-93403212D01*
X199359414Y-93263072D01*
X199236928Y-93140586D01*
X199096788Y-93038768D01*
X198942445Y-92960127D01*
X198777701Y-92906598D01*
X198777699Y-92906597D01*
X198777698Y-92906597D01*
X198646271Y-92885781D01*
X198606611Y-92879500D01*
X197633389Y-92879500D01*
X197593728Y-92885781D01*
X197462302Y-92906597D01*
X197297552Y-92960128D01*
X197143211Y-93038768D01*
X197063256Y-93096859D01*
X197003072Y-93140586D01*
X197003070Y-93140588D01*
X197003069Y-93140588D01*
X196880588Y-93263069D01*
X196880588Y-93263070D01*
X196880586Y-93263072D01*
X196854929Y-93298386D01*
X196778768Y-93403211D01*
X196700128Y-93557552D01*
X196646597Y-93722302D01*
X196619500Y-93893389D01*
X194540500Y-93893389D01*
X194513402Y-93722299D01*
X194459873Y-93557555D01*
X194381232Y-93403212D01*
X194279414Y-93263072D01*
X194156928Y-93140586D01*
X194016788Y-93038768D01*
X193862445Y-92960127D01*
X193697701Y-92906598D01*
X193697699Y-92906597D01*
X193697698Y-92906597D01*
X193566271Y-92885781D01*
X193526611Y-92879500D01*
X192553389Y-92879500D01*
X192513728Y-92885781D01*
X192382302Y-92906597D01*
X192217552Y-92960128D01*
X192063211Y-93038768D01*
X191983256Y-93096859D01*
X191923072Y-93140586D01*
X191923070Y-93140588D01*
X191923069Y-93140588D01*
X191857681Y-93205977D01*
X191796358Y-93239462D01*
X191726666Y-93234478D01*
X191682319Y-93205977D01*
X191616930Y-93140588D01*
X191616928Y-93140586D01*
X191476788Y-93038768D01*
X191322445Y-92960127D01*
X191157701Y-92906598D01*
X191157699Y-92906597D01*
X191157698Y-92906597D01*
X191026271Y-92885781D01*
X190986611Y-92879500D01*
X190013389Y-92879500D01*
X189973728Y-92885781D01*
X189842302Y-92906597D01*
X189677552Y-92960128D01*
X189523211Y-93038768D01*
X189443256Y-93096859D01*
X189383072Y-93140586D01*
X189383070Y-93140588D01*
X189383069Y-93140588D01*
X189260588Y-93263069D01*
X189260588Y-93263070D01*
X189260586Y-93263072D01*
X189234929Y-93298386D01*
X189158768Y-93403211D01*
X189080128Y-93557552D01*
X189026597Y-93722302D01*
X188999500Y-93893389D01*
X186920500Y-93893389D01*
X186893402Y-93722299D01*
X186839873Y-93557555D01*
X186761232Y-93403212D01*
X186659414Y-93263072D01*
X186536928Y-93140586D01*
X186396788Y-93038768D01*
X186242445Y-92960127D01*
X186077701Y-92906598D01*
X186077699Y-92906597D01*
X186077698Y-92906597D01*
X185946271Y-92885781D01*
X185906611Y-92879500D01*
X184933389Y-92879500D01*
X184893728Y-92885781D01*
X184762302Y-92906597D01*
X184597552Y-92960128D01*
X184443211Y-93038768D01*
X184363256Y-93096859D01*
X184303072Y-93140586D01*
X184303070Y-93140588D01*
X184303069Y-93140588D01*
X184237681Y-93205977D01*
X184176358Y-93239462D01*
X184106666Y-93234478D01*
X184062319Y-93205977D01*
X183996930Y-93140588D01*
X183996928Y-93140586D01*
X183856788Y-93038768D01*
X183702445Y-92960127D01*
X183537701Y-92906598D01*
X183537699Y-92906597D01*
X183537698Y-92906597D01*
X183406271Y-92885781D01*
X183366611Y-92879500D01*
X182393389Y-92879500D01*
X182353728Y-92885781D01*
X182222302Y-92906597D01*
X182057552Y-92960128D01*
X181903211Y-93038768D01*
X181823256Y-93096859D01*
X181763072Y-93140586D01*
X181763070Y-93140588D01*
X181763069Y-93140588D01*
X181640588Y-93263069D01*
X181640588Y-93263070D01*
X181640586Y-93263072D01*
X181614929Y-93298386D01*
X181538768Y-93403211D01*
X181460128Y-93557552D01*
X181406597Y-93722302D01*
X181379500Y-93893389D01*
X180370500Y-93893389D01*
X180370500Y-93877648D01*
X180338477Y-93675466D01*
X180275220Y-93480781D01*
X180275218Y-93480778D01*
X180275218Y-93480776D01*
X180241503Y-93414607D01*
X180182287Y-93298390D01*
X180115146Y-93205977D01*
X180061971Y-93132786D01*
X179917213Y-92988028D01*
X179751613Y-92867715D01*
X179751612Y-92867714D01*
X179751610Y-92867713D01*
X179694653Y-92838691D01*
X179569223Y-92774781D01*
X179374534Y-92711522D01*
X179199995Y-92683878D01*
X179172352Y-92679500D01*
X178967648Y-92679500D01*
X178943329Y-92683351D01*
X178765465Y-92711522D01*
X178570776Y-92774781D01*
X178388386Y-92867715D01*
X178222786Y-92988028D01*
X178078028Y-93132786D01*
X177957715Y-93298386D01*
X177864781Y-93480776D01*
X177801522Y-93675465D01*
X177769500Y-93877648D01*
X177769500Y-94082351D01*
X177801522Y-94284534D01*
X177864781Y-94479223D01*
X177904303Y-94556788D01*
X177954258Y-94654830D01*
X177957715Y-94661613D01*
X178078028Y-94827213D01*
X178222786Y-94971971D01*
X178372166Y-95080500D01*
X178388390Y-95092287D01*
X178479840Y-95138883D01*
X178481080Y-95139515D01*
X178531876Y-95187490D01*
X178548671Y-95255311D01*
X178526134Y-95321446D01*
X178481080Y-95360485D01*
X178388386Y-95407715D01*
X178222786Y-95528028D01*
X178078028Y-95672786D01*
X177957715Y-95838386D01*
X177910485Y-95931080D01*
X177862510Y-95981876D01*
X177794689Y-95998671D01*
X177728554Y-95976134D01*
X177689515Y-95931080D01*
X177688883Y-95929840D01*
X177642287Y-95838390D01*
X177585656Y-95760443D01*
X177521971Y-95672786D01*
X177377213Y-95528028D01*
X177211613Y-95407715D01*
X177211612Y-95407714D01*
X177211610Y-95407713D01*
X177154653Y-95378691D01*
X177029223Y-95314781D01*
X176834534Y-95251522D01*
X176659995Y-95223878D01*
X176632352Y-95219500D01*
X176427648Y-95219500D01*
X176403329Y-95223351D01*
X176225465Y-95251522D01*
X176030776Y-95314781D01*
X175848386Y-95407715D01*
X175682786Y-95528028D01*
X175538028Y-95672786D01*
X175417715Y-95838386D01*
X175324781Y-96020776D01*
X175261522Y-96215465D01*
X175229500Y-96417648D01*
X171429371Y-96417648D01*
X171399221Y-96227294D01*
X171338418Y-96040164D01*
X171249096Y-95864858D01*
X171223678Y-95829873D01*
X171223677Y-95829873D01*
X170580000Y-96473551D01*
X170580000Y-96467339D01*
X170552741Y-96365606D01*
X170500080Y-96274394D01*
X170425606Y-96199920D01*
X170334394Y-96147259D01*
X170232661Y-96120000D01*
X170226447Y-96120000D01*
X170870125Y-95476320D01*
X170870125Y-95476319D01*
X170835145Y-95450905D01*
X170659835Y-95361581D01*
X170472705Y-95300778D01*
X170278382Y-95270000D01*
X170081618Y-95270000D01*
X169887294Y-95300778D01*
X169700161Y-95361582D01*
X169524863Y-95450899D01*
X169524859Y-95450902D01*
X169489873Y-95476320D01*
X169489872Y-95476320D01*
X170133554Y-96120000D01*
X170127339Y-96120000D01*
X170025606Y-96147259D01*
X169934394Y-96199920D01*
X169859920Y-96274394D01*
X169807259Y-96365606D01*
X169780000Y-96467339D01*
X169780000Y-96473552D01*
X169136320Y-95829872D01*
X169136320Y-95829873D01*
X169110902Y-95864859D01*
X169110899Y-95864863D01*
X169021582Y-96040161D01*
X168960778Y-96227294D01*
X168930000Y-96421617D01*
X168930000Y-96618382D01*
X168960778Y-96812705D01*
X169021581Y-96999835D01*
X169110905Y-97175145D01*
X169136319Y-97210125D01*
X169136320Y-97210125D01*
X169780000Y-96566445D01*
X169780000Y-96572661D01*
X169807259Y-96674394D01*
X169859920Y-96765606D01*
X169934394Y-96840080D01*
X170025606Y-96892741D01*
X170127339Y-96920000D01*
X170133553Y-96920000D01*
X169489873Y-97563677D01*
X169489873Y-97563678D01*
X169524858Y-97589096D01*
X169701764Y-97679234D01*
X169752560Y-97727209D01*
X169769355Y-97795030D01*
X169746818Y-97861164D01*
X169701764Y-97900204D01*
X169524594Y-97990476D01*
X169456255Y-98040128D01*
X169365354Y-98106172D01*
X169365352Y-98106174D01*
X169365351Y-98106174D01*
X169226174Y-98245351D01*
X169226174Y-98245352D01*
X169226172Y-98245354D01*
X169176485Y-98313741D01*
X169110476Y-98404594D01*
X169021117Y-98579970D01*
X168960290Y-98767173D01*
X168929500Y-98961577D01*
X154170500Y-98961577D01*
X154170500Y-95147648D01*
X159989500Y-95147648D01*
X159989500Y-95352351D01*
X160021522Y-95554534D01*
X160084781Y-95749223D01*
X160177715Y-95931613D01*
X160298028Y-96097213D01*
X160442786Y-96241971D01*
X160581073Y-96342440D01*
X160608390Y-96362287D01*
X160697212Y-96407544D01*
X160790776Y-96455218D01*
X160790778Y-96455218D01*
X160790781Y-96455220D01*
X160895137Y-96489127D01*
X160985465Y-96518477D01*
X161086557Y-96534488D01*
X161187648Y-96550500D01*
X161187649Y-96550500D01*
X161392351Y-96550500D01*
X161392352Y-96550500D01*
X161594534Y-96518477D01*
X161789219Y-96455220D01*
X161971610Y-96362287D01*
X162067901Y-96292328D01*
X162137213Y-96241971D01*
X162137215Y-96241968D01*
X162137219Y-96241966D01*
X162281966Y-96097219D01*
X162281966Y-96097218D01*
X162285411Y-96093774D01*
X162286867Y-96095230D01*
X162338123Y-96061758D01*
X162407991Y-96061248D01*
X162467044Y-96098591D01*
X162494603Y-96151958D01*
X162495908Y-96157482D01*
X162546202Y-96292328D01*
X162546206Y-96292335D01*
X162632452Y-96407544D01*
X162632455Y-96407547D01*
X162747664Y-96493793D01*
X162747671Y-96493797D01*
X162882517Y-96544091D01*
X162882516Y-96544091D01*
X162889444Y-96544835D01*
X162942127Y-96550500D01*
X164637872Y-96550499D01*
X164697483Y-96544091D01*
X164832331Y-96493796D01*
X164947546Y-96407546D01*
X164969245Y-96378559D01*
X164996285Y-96342440D01*
X165033793Y-96292335D01*
X165033792Y-96292335D01*
X165033796Y-96292331D01*
X165084091Y-96157483D01*
X165090500Y-96097873D01*
X165090499Y-95250000D01*
X165090499Y-94402129D01*
X165090498Y-94402123D01*
X165084091Y-94342516D01*
X165033797Y-94207671D01*
X165033793Y-94207664D01*
X164947547Y-94092455D01*
X164947544Y-94092452D01*
X164832335Y-94006206D01*
X164832328Y-94006202D01*
X164786093Y-93988958D01*
X164697482Y-93955908D01*
X164697483Y-93955908D01*
X164637883Y-93949501D01*
X164637881Y-93949500D01*
X164637873Y-93949500D01*
X164637864Y-93949500D01*
X162942129Y-93949500D01*
X162942123Y-93949501D01*
X162882516Y-93955908D01*
X162747671Y-94006202D01*
X162747664Y-94006206D01*
X162632455Y-94092452D01*
X162632452Y-94092455D01*
X162546206Y-94207664D01*
X162546202Y-94207671D01*
X162495908Y-94342517D01*
X162494603Y-94348042D01*
X162460028Y-94408757D01*
X162398116Y-94441141D01*
X162328525Y-94434912D01*
X162286613Y-94405023D01*
X162285411Y-94406226D01*
X162137213Y-94258028D01*
X161971613Y-94137715D01*
X161971612Y-94137714D01*
X161971610Y-94137713D01*
X161914653Y-94108691D01*
X161789223Y-94044781D01*
X161594534Y-93981522D01*
X161419995Y-93953878D01*
X161392352Y-93949500D01*
X161187648Y-93949500D01*
X161163329Y-93953351D01*
X160985465Y-93981522D01*
X160790776Y-94044781D01*
X160608386Y-94137715D01*
X160442786Y-94258028D01*
X160298028Y-94402786D01*
X160177715Y-94568386D01*
X160084781Y-94750776D01*
X160021522Y-94945465D01*
X159989500Y-95147648D01*
X154170500Y-95147648D01*
X154170500Y-93877648D01*
X167609500Y-93877648D01*
X167609500Y-94082351D01*
X167641522Y-94284534D01*
X167704781Y-94479223D01*
X167744303Y-94556788D01*
X167794258Y-94654830D01*
X167797715Y-94661613D01*
X167918028Y-94827213D01*
X168062786Y-94971971D01*
X168212166Y-95080500D01*
X168228390Y-95092287D01*
X168321080Y-95139515D01*
X168410776Y-95185218D01*
X168410778Y-95185218D01*
X168410781Y-95185220D01*
X168515137Y-95219127D01*
X168605465Y-95248477D01*
X168624697Y-95251523D01*
X168807648Y-95280500D01*
X168807649Y-95280500D01*
X169012351Y-95280500D01*
X169012352Y-95280500D01*
X169214534Y-95248477D01*
X169409219Y-95185220D01*
X169591610Y-95092287D01*
X169718811Y-94999871D01*
X169757213Y-94971971D01*
X169757215Y-94971968D01*
X169757219Y-94971966D01*
X169901966Y-94827219D01*
X169901968Y-94827215D01*
X169901971Y-94827213D01*
X169965657Y-94739555D01*
X170022287Y-94661610D01*
X170115220Y-94479219D01*
X170178477Y-94284534D01*
X170210500Y-94082352D01*
X170210500Y-93877648D01*
X170178477Y-93675466D01*
X170115220Y-93480781D01*
X170115218Y-93480778D01*
X170115218Y-93480776D01*
X170081503Y-93414607D01*
X170022287Y-93298390D01*
X169955146Y-93205977D01*
X169901971Y-93132786D01*
X169757213Y-92988028D01*
X169591613Y-92867715D01*
X169591612Y-92867714D01*
X169591610Y-92867713D01*
X169534653Y-92838691D01*
X169409223Y-92774781D01*
X169214534Y-92711522D01*
X169039995Y-92683878D01*
X169012352Y-92679500D01*
X168807648Y-92679500D01*
X168783329Y-92683351D01*
X168605465Y-92711522D01*
X168410776Y-92774781D01*
X168228386Y-92867715D01*
X168062786Y-92988028D01*
X167918028Y-93132786D01*
X167797715Y-93298386D01*
X167704781Y-93480776D01*
X167641522Y-93675465D01*
X167609500Y-93877648D01*
X154170500Y-93877648D01*
X154170500Y-90059778D01*
X157349500Y-90059778D01*
X157349500Y-90280222D01*
X157358889Y-90339500D01*
X157383985Y-90497952D01*
X157452103Y-90707603D01*
X157452104Y-90707606D01*
X157552187Y-90904025D01*
X157681752Y-91082358D01*
X157681756Y-91082363D01*
X157837636Y-91238243D01*
X157837641Y-91238247D01*
X157885518Y-91273031D01*
X158015978Y-91367815D01*
X158144375Y-91433237D01*
X158212393Y-91467895D01*
X158212396Y-91467896D01*
X158317221Y-91501955D01*
X158422049Y-91536015D01*
X158639778Y-91570500D01*
X158639779Y-91570500D01*
X158860221Y-91570500D01*
X158860222Y-91570500D01*
X159077951Y-91536015D01*
X159287606Y-91467895D01*
X159484022Y-91367815D01*
X159662365Y-91238242D01*
X159818242Y-91082365D01*
X159947815Y-90904022D01*
X160047895Y-90707606D01*
X160116015Y-90497951D01*
X160150500Y-90280222D01*
X160150500Y-90059778D01*
X160116015Y-89842049D01*
X160047895Y-89632394D01*
X160047895Y-89632393D01*
X160013237Y-89564375D01*
X159947815Y-89435978D01*
X159910950Y-89385237D01*
X159842986Y-89291691D01*
X159818247Y-89257641D01*
X159818243Y-89257636D01*
X159782742Y-89222135D01*
X164969500Y-89222135D01*
X164969500Y-91117870D01*
X164969501Y-91117876D01*
X164975908Y-91177483D01*
X165026202Y-91312328D01*
X165026206Y-91312335D01*
X165112452Y-91427544D01*
X165112455Y-91427547D01*
X165227664Y-91513793D01*
X165227671Y-91513797D01*
X165362517Y-91564091D01*
X165362516Y-91564091D01*
X165369444Y-91564835D01*
X165422127Y-91570500D01*
X167317872Y-91570499D01*
X167377483Y-91564091D01*
X167512331Y-91513796D01*
X167627546Y-91427546D01*
X167713796Y-91312331D01*
X167764091Y-91177483D01*
X167770500Y-91117873D01*
X167770499Y-90053947D01*
X169679500Y-90053947D01*
X169679500Y-90286052D01*
X169709794Y-90516148D01*
X169769862Y-90740328D01*
X169858677Y-90954745D01*
X169858685Y-90954762D01*
X169974720Y-91155743D01*
X169974721Y-91155745D01*
X170116009Y-91339875D01*
X170116015Y-91339882D01*
X170280117Y-91503984D01*
X170280124Y-91503990D01*
X170464254Y-91645278D01*
X170464256Y-91645279D01*
X170665237Y-91761314D01*
X170665240Y-91761315D01*
X170665248Y-91761320D01*
X170879670Y-91850137D01*
X171103851Y-91910206D01*
X171333955Y-91940500D01*
X171333962Y-91940500D01*
X171566038Y-91940500D01*
X171566045Y-91940500D01*
X171796149Y-91910206D01*
X172020330Y-91850137D01*
X172234752Y-91761320D01*
X172435748Y-91645276D01*
X172619877Y-91503989D01*
X172770477Y-91353389D01*
X181379500Y-91353389D01*
X181379500Y-91526611D01*
X181385436Y-91564091D01*
X181398294Y-91645276D01*
X181406598Y-91697701D01*
X181460127Y-91862445D01*
X181538768Y-92016788D01*
X181640586Y-92156928D01*
X181763072Y-92279414D01*
X181903212Y-92381232D01*
X182057555Y-92459873D01*
X182222299Y-92513402D01*
X182393389Y-92540500D01*
X182393390Y-92540500D01*
X183366610Y-92540500D01*
X183366611Y-92540500D01*
X183537701Y-92513402D01*
X183702445Y-92459873D01*
X183856788Y-92381232D01*
X183996928Y-92279414D01*
X184062319Y-92214023D01*
X184123642Y-92180538D01*
X184193334Y-92185522D01*
X184237681Y-92214023D01*
X184303072Y-92279414D01*
X184443212Y-92381232D01*
X184597555Y-92459873D01*
X184762299Y-92513402D01*
X184933389Y-92540500D01*
X184933390Y-92540500D01*
X185906610Y-92540500D01*
X185906611Y-92540500D01*
X186077701Y-92513402D01*
X186242445Y-92459873D01*
X186396788Y-92381232D01*
X186536928Y-92279414D01*
X186659414Y-92156928D01*
X186761232Y-92016788D01*
X186839873Y-91862445D01*
X186893402Y-91697701D01*
X186920500Y-91526611D01*
X186920500Y-91353389D01*
X196619500Y-91353389D01*
X196619500Y-91526611D01*
X196625436Y-91564091D01*
X196638294Y-91645276D01*
X196646598Y-91697701D01*
X196700127Y-91862445D01*
X196778768Y-92016788D01*
X196880586Y-92156928D01*
X197003072Y-92279414D01*
X197143212Y-92381232D01*
X197297555Y-92459873D01*
X197462299Y-92513402D01*
X197633389Y-92540500D01*
X197633390Y-92540500D01*
X198606610Y-92540500D01*
X198606611Y-92540500D01*
X198777701Y-92513402D01*
X198942445Y-92459873D01*
X199096788Y-92381232D01*
X199236928Y-92279414D01*
X199359414Y-92156928D01*
X199461232Y-92016788D01*
X199539873Y-91862445D01*
X199593402Y-91697701D01*
X199620500Y-91526611D01*
X199620500Y-91353389D01*
X199593402Y-91182299D01*
X199539873Y-91017555D01*
X199461232Y-90863212D01*
X199359414Y-90723072D01*
X199236928Y-90600586D01*
X199096788Y-90498768D01*
X198942445Y-90420127D01*
X198777701Y-90366598D01*
X198777699Y-90366597D01*
X198777698Y-90366597D01*
X198646271Y-90345781D01*
X198606611Y-90339500D01*
X197633389Y-90339500D01*
X197593728Y-90345781D01*
X197462302Y-90366597D01*
X197297552Y-90420128D01*
X197143211Y-90498768D01*
X197063256Y-90556859D01*
X197003072Y-90600586D01*
X197003070Y-90600588D01*
X197003069Y-90600588D01*
X196880588Y-90723069D01*
X196880588Y-90723070D01*
X196880586Y-90723072D01*
X196850001Y-90765169D01*
X196778768Y-90863211D01*
X196700128Y-91017552D01*
X196646597Y-91182302D01*
X196632227Y-91273031D01*
X196619500Y-91353389D01*
X186920500Y-91353389D01*
X186893402Y-91182299D01*
X186839873Y-91017555D01*
X186761232Y-90863212D01*
X186659414Y-90723072D01*
X186536928Y-90600586D01*
X186396788Y-90498768D01*
X186242445Y-90420127D01*
X186077701Y-90366598D01*
X186077699Y-90366597D01*
X186077698Y-90366597D01*
X185946271Y-90345781D01*
X185906611Y-90339500D01*
X184933389Y-90339500D01*
X184893728Y-90345781D01*
X184762302Y-90366597D01*
X184597552Y-90420128D01*
X184443211Y-90498768D01*
X184363256Y-90556859D01*
X184303072Y-90600586D01*
X184303070Y-90600588D01*
X184303069Y-90600588D01*
X184237681Y-90665977D01*
X184176358Y-90699462D01*
X184106666Y-90694478D01*
X184062319Y-90665977D01*
X183996930Y-90600588D01*
X183996928Y-90600586D01*
X183856788Y-90498768D01*
X183702445Y-90420127D01*
X183537701Y-90366598D01*
X183537699Y-90366597D01*
X183537698Y-90366597D01*
X183406271Y-90345781D01*
X183366611Y-90339500D01*
X182393389Y-90339500D01*
X182353728Y-90345781D01*
X182222302Y-90366597D01*
X182057552Y-90420128D01*
X181903211Y-90498768D01*
X181823256Y-90556859D01*
X181763072Y-90600586D01*
X181763070Y-90600588D01*
X181763069Y-90600588D01*
X181640588Y-90723069D01*
X181640588Y-90723070D01*
X181640586Y-90723072D01*
X181610001Y-90765169D01*
X181538768Y-90863211D01*
X181460128Y-91017552D01*
X181406597Y-91182302D01*
X181392227Y-91273031D01*
X181379500Y-91353389D01*
X172770477Y-91353389D01*
X172783989Y-91339877D01*
X172861976Y-91238243D01*
X172925278Y-91155745D01*
X172925279Y-91155743D01*
X173041314Y-90954762D01*
X173041320Y-90954752D01*
X173130137Y-90740330D01*
X173190206Y-90516149D01*
X173220500Y-90286045D01*
X173220500Y-90053955D01*
X173190206Y-89823851D01*
X173130137Y-89599670D01*
X173041320Y-89385248D01*
X173041314Y-89385237D01*
X172925279Y-89184256D01*
X172925278Y-89184254D01*
X172783990Y-89000124D01*
X172783984Y-89000117D01*
X172619882Y-88836015D01*
X172619875Y-88836009D01*
X172435745Y-88694721D01*
X172435743Y-88694720D01*
X172234762Y-88578685D01*
X172234754Y-88578681D01*
X172234752Y-88578680D01*
X172020330Y-88489863D01*
X172020331Y-88489863D01*
X172020328Y-88489862D01*
X171878203Y-88451780D01*
X171796149Y-88429794D01*
X171767386Y-88426007D01*
X171566052Y-88399500D01*
X171566045Y-88399500D01*
X171333955Y-88399500D01*
X171333947Y-88399500D01*
X171103851Y-88429794D01*
X170879671Y-88489862D01*
X170665254Y-88578677D01*
X170665237Y-88578685D01*
X170464256Y-88694720D01*
X170464254Y-88694721D01*
X170280124Y-88836009D01*
X170280117Y-88836015D01*
X170116015Y-89000117D01*
X170116009Y-89000124D01*
X169974721Y-89184254D01*
X169974720Y-89184256D01*
X169858685Y-89385237D01*
X169858677Y-89385254D01*
X169769862Y-89599671D01*
X169709794Y-89823851D01*
X169679500Y-90053947D01*
X167770499Y-90053947D01*
X167770499Y-89222128D01*
X167764091Y-89162517D01*
X167741429Y-89101758D01*
X167713797Y-89027671D01*
X167713793Y-89027664D01*
X167627547Y-88912455D01*
X167627544Y-88912452D01*
X167512335Y-88826206D01*
X167512328Y-88826202D01*
X167377482Y-88775908D01*
X167377483Y-88775908D01*
X167317883Y-88769501D01*
X167317881Y-88769500D01*
X167317873Y-88769500D01*
X167317864Y-88769500D01*
X165422129Y-88769500D01*
X165422123Y-88769501D01*
X165362516Y-88775908D01*
X165227671Y-88826202D01*
X165227664Y-88826206D01*
X165112455Y-88912452D01*
X165112452Y-88912455D01*
X165026206Y-89027664D01*
X165026202Y-89027671D01*
X164975908Y-89162517D01*
X164969501Y-89222116D01*
X164969501Y-89222123D01*
X164969500Y-89222135D01*
X159782742Y-89222135D01*
X159662363Y-89101756D01*
X159662358Y-89101752D01*
X159484025Y-88972187D01*
X159484024Y-88972186D01*
X159484022Y-88972185D01*
X159421096Y-88940122D01*
X159287606Y-88872104D01*
X159287603Y-88872103D01*
X159077952Y-88803985D01*
X158969086Y-88786742D01*
X158860222Y-88769500D01*
X158639778Y-88769500D01*
X158567201Y-88780995D01*
X158422047Y-88803985D01*
X158212396Y-88872103D01*
X158212393Y-88872104D01*
X158015974Y-88972187D01*
X157837641Y-89101752D01*
X157837636Y-89101756D01*
X157681756Y-89257636D01*
X157681752Y-89257641D01*
X157552187Y-89435974D01*
X157452104Y-89632393D01*
X157452103Y-89632396D01*
X157383985Y-89842047D01*
X157350424Y-90053947D01*
X157349500Y-90059778D01*
X154170500Y-90059778D01*
X154170500Y-86265513D01*
X155029500Y-86265513D01*
X155029500Y-86454486D01*
X155059059Y-86641118D01*
X155117454Y-86820836D01*
X155185729Y-86954832D01*
X155203240Y-86989199D01*
X155314310Y-87142073D01*
X155447927Y-87275690D01*
X155600801Y-87386760D01*
X155680347Y-87427290D01*
X155769163Y-87472545D01*
X155769165Y-87472545D01*
X155769168Y-87472547D01*
X155865497Y-87503846D01*
X155948881Y-87530940D01*
X156135514Y-87560500D01*
X156135519Y-87560500D01*
X156324486Y-87560500D01*
X156511118Y-87530940D01*
X156514390Y-87529877D01*
X156690832Y-87472547D01*
X156859199Y-87386760D01*
X157012073Y-87275690D01*
X157145690Y-87142073D01*
X157256760Y-86989199D01*
X157342547Y-86820832D01*
X157382069Y-86699195D01*
X157421507Y-86641521D01*
X157485866Y-86614323D01*
X157554712Y-86626238D01*
X157606188Y-86673482D01*
X157617931Y-86699196D01*
X157657454Y-86820836D01*
X157725729Y-86954832D01*
X157743240Y-86989199D01*
X157854310Y-87142073D01*
X157987927Y-87275690D01*
X158140801Y-87386760D01*
X158220347Y-87427290D01*
X158309163Y-87472545D01*
X158309165Y-87472545D01*
X158309168Y-87472547D01*
X158405497Y-87503846D01*
X158488881Y-87530940D01*
X158675514Y-87560500D01*
X158675519Y-87560500D01*
X158864486Y-87560500D01*
X159051118Y-87530940D01*
X159054390Y-87529877D01*
X159230832Y-87472547D01*
X159399199Y-87386760D01*
X159552073Y-87275690D01*
X159685690Y-87142073D01*
X159796760Y-86989199D01*
X159882547Y-86820832D01*
X159940940Y-86641118D01*
X159966760Y-86478097D01*
X159970500Y-86454486D01*
X159970500Y-86265513D01*
X159940940Y-86078881D01*
X159882545Y-85899163D01*
X159796759Y-85730800D01*
X159760840Y-85681362D01*
X159685690Y-85577927D01*
X159552073Y-85444310D01*
X159522928Y-85423135D01*
X176356800Y-85423135D01*
X176356800Y-87296870D01*
X176356801Y-87296876D01*
X176363208Y-87356483D01*
X176413502Y-87491328D01*
X176413506Y-87491335D01*
X176499752Y-87606544D01*
X176499755Y-87606547D01*
X176614964Y-87692793D01*
X176614971Y-87692797D01*
X176749817Y-87743091D01*
X176749816Y-87743091D01*
X176756744Y-87743835D01*
X176809427Y-87749500D01*
X178683172Y-87749499D01*
X178742783Y-87743091D01*
X178877631Y-87692796D01*
X178992846Y-87606546D01*
X179049445Y-87530940D01*
X179084412Y-87484231D01*
X179086821Y-87486034D01*
X179125569Y-87447276D01*
X179193840Y-87432415D01*
X179259308Y-87456823D01*
X179272692Y-87468419D01*
X179308790Y-87504517D01*
X179499867Y-87643343D01*
X179569689Y-87678919D01*
X179710303Y-87750566D01*
X179710305Y-87750566D01*
X179710308Y-87750568D01*
X179830712Y-87789689D01*
X179934931Y-87823553D01*
X180168203Y-87860500D01*
X180168208Y-87860500D01*
X180404397Y-87860500D01*
X180637668Y-87823553D01*
X180652878Y-87818611D01*
X180862292Y-87750568D01*
X181072733Y-87643343D01*
X181263810Y-87504517D01*
X181430817Y-87337510D01*
X181569643Y-87146433D01*
X181676868Y-86935992D01*
X181749853Y-86711368D01*
X181760916Y-86641521D01*
X181786800Y-86478097D01*
X181786800Y-86241902D01*
X181749853Y-86008631D01*
X181680801Y-85796113D01*
X181676868Y-85784008D01*
X181676866Y-85784005D01*
X181676866Y-85784003D01*
X181595153Y-85623634D01*
X181569643Y-85573567D01*
X181430817Y-85382490D01*
X181263810Y-85215483D01*
X181072733Y-85076657D01*
X180862296Y-84969433D01*
X180637668Y-84896446D01*
X180404397Y-84859500D01*
X180404392Y-84859500D01*
X180168208Y-84859500D01*
X180168203Y-84859500D01*
X179934931Y-84896446D01*
X179710303Y-84969433D01*
X179499866Y-85076657D01*
X179449223Y-85113452D01*
X179308790Y-85215483D01*
X179308788Y-85215485D01*
X179308786Y-85215486D01*
X179272691Y-85251581D01*
X179211368Y-85285066D01*
X179141676Y-85280080D01*
X179085743Y-85238208D01*
X179082740Y-85233535D01*
X178992847Y-85113455D01*
X178992844Y-85113452D01*
X178877635Y-85027206D01*
X178877628Y-85027202D01*
X178742782Y-84976908D01*
X178742783Y-84976908D01*
X178683183Y-84970501D01*
X178683181Y-84970500D01*
X178683173Y-84970500D01*
X178683164Y-84970500D01*
X176809429Y-84970500D01*
X176809423Y-84970501D01*
X176749816Y-84976908D01*
X176614971Y-85027202D01*
X176614964Y-85027206D01*
X176499755Y-85113452D01*
X176499752Y-85113455D01*
X176413506Y-85228664D01*
X176413502Y-85228671D01*
X176363208Y-85363517D01*
X176356801Y-85423116D01*
X176356800Y-85423135D01*
X159522928Y-85423135D01*
X159399199Y-85333240D01*
X159230836Y-85247454D01*
X159051118Y-85189059D01*
X158864486Y-85159500D01*
X158864481Y-85159500D01*
X158675519Y-85159500D01*
X158675514Y-85159500D01*
X158488881Y-85189059D01*
X158309163Y-85247454D01*
X158140800Y-85333240D01*
X158069026Y-85385388D01*
X157987927Y-85444310D01*
X157987925Y-85444312D01*
X157987924Y-85444312D01*
X157854312Y-85577924D01*
X157854312Y-85577925D01*
X157854310Y-85577927D01*
X157821102Y-85623634D01*
X157743240Y-85730800D01*
X157657454Y-85899163D01*
X157617931Y-86020803D01*
X157578493Y-86078478D01*
X157514134Y-86105676D01*
X157445288Y-86093761D01*
X157393812Y-86046516D01*
X157382069Y-86020803D01*
X157342545Y-85899163D01*
X157256759Y-85730800D01*
X157220840Y-85681362D01*
X157145690Y-85577927D01*
X157012073Y-85444310D01*
X156859199Y-85333240D01*
X156690836Y-85247454D01*
X156511118Y-85189059D01*
X156324486Y-85159500D01*
X156324481Y-85159500D01*
X156135519Y-85159500D01*
X156135514Y-85159500D01*
X155948881Y-85189059D01*
X155769163Y-85247454D01*
X155600800Y-85333240D01*
X155529026Y-85385388D01*
X155447927Y-85444310D01*
X155447925Y-85444312D01*
X155447924Y-85444312D01*
X155314312Y-85577924D01*
X155314312Y-85577925D01*
X155314310Y-85577927D01*
X155281102Y-85623634D01*
X155203240Y-85730800D01*
X155117454Y-85899163D01*
X155059059Y-86078881D01*
X155029500Y-86265513D01*
X154170500Y-86265513D01*
X154170500Y-83944000D01*
X154190185Y-83876961D01*
X154242989Y-83831206D01*
X154294500Y-83820000D01*
X182756000Y-83820000D01*
X182823039Y-83839685D01*
G37*
%TD.AperFunction*%
%TD*%
M02*
