%TF.GenerationSoftware,KiCad,Pcbnew,9.0.0*%
%TF.CreationDate,2025-03-10T22:05:16+01:00*%
%TF.ProjectId,BigBrother_Telerupteur,42696742-726f-4746-9865-725f54656c65,rev?*%
%TF.SameCoordinates,Original*%
%TF.FileFunction,Soldermask,Top*%
%TF.FilePolarity,Negative*%
%FSLAX46Y46*%
G04 Gerber Fmt 4.6, Leading zero omitted, Abs format (unit mm)*
G04 Created by KiCad (PCBNEW 9.0.0) date 2025-03-10 22:05:16*
%MOMM*%
%LPD*%
G01*
G04 APERTURE LIST*
G04 Aperture macros list*
%AMRoundRect*
0 Rectangle with rounded corners*
0 $1 Rounding radius*
0 $2 $3 $4 $5 $6 $7 $8 $9 X,Y pos of 4 corners*
0 Add a 4 corners polygon primitive as box body*
4,1,4,$2,$3,$4,$5,$6,$7,$8,$9,$2,$3,0*
0 Add four circle primitives for the rounded corners*
1,1,$1+$1,$2,$3*
1,1,$1+$1,$4,$5*
1,1,$1+$1,$6,$7*
1,1,$1+$1,$8,$9*
0 Add four rect primitives between the rounded corners*
20,1,$1+$1,$2,$3,$4,$5,0*
20,1,$1+$1,$4,$5,$6,$7,0*
20,1,$1+$1,$6,$7,$8,$9,0*
20,1,$1+$1,$8,$9,$2,$3,0*%
G04 Aperture macros list end*
%ADD10R,1.700000X2.000000*%
%ADD11O,1.700000X2.000000*%
%ADD12R,2.500000X2.500000*%
%ADD13C,2.500000*%
%ADD14C,1.600000*%
%ADD15O,1.600000X1.600000*%
%ADD16RoundRect,0.250000X-1.050000X-1.050000X1.050000X-1.050000X1.050000X1.050000X-1.050000X1.050000X0*%
%ADD17C,2.600000*%
%ADD18R,1.800000X1.800000*%
%ADD19O,1.800000X1.800000*%
%ADD20R,1.400000X1.400000*%
%ADD21C,1.400000*%
%ADD22O,2.000000X1.200000*%
%ADD23R,2.000000X1.200000*%
%ADD24R,1.600000X1.600000*%
%ADD25R,1.500000X1.500000*%
%ADD26C,1.500000*%
%ADD27C,1.800000*%
%ADD28RoundRect,0.250000X-0.550000X-0.550000X0.550000X-0.550000X0.550000X0.550000X-0.550000X0.550000X0*%
%ADD29R,2.000000X2.000000*%
%ADD30O,2.000000X2.000000*%
%ADD31R,1.778000X1.778000*%
%ADD32C,2.000000*%
%ADD33C,2.400000*%
%ADD34O,2.400000X2.400000*%
G04 APERTURE END LIST*
D10*
%TO.C,PS1*%
X242440000Y-96680000D03*
D11*
X242440000Y-101680000D03*
X213360000Y-91680000D03*
X213360000Y-106680000D03*
%TD*%
D12*
%TO.C,F1*%
X214870000Y-80010000D03*
D13*
X224870000Y-80010000D03*
%TD*%
D14*
%TO.C,R2*%
X179070000Y-93980000D03*
D15*
X168910000Y-93980000D03*
%TD*%
D16*
%TO.C,J3*%
X190540000Y-77470000D03*
D17*
X195540000Y-77470000D03*
%TD*%
D18*
%TO.C,D2*%
X166370000Y-90170000D03*
D19*
X158750000Y-90170000D03*
%TD*%
D16*
%TO.C,J2*%
X200660000Y-77470000D03*
D17*
X205660000Y-77470000D03*
%TD*%
D20*
%TO.C,D1*%
X156230000Y-81280000D03*
D21*
X158770000Y-81280000D03*
X158770000Y-86360000D03*
X156230000Y-86360000D03*
%TD*%
D16*
%TO.C,J1*%
X180420000Y-77470000D03*
D17*
X185420000Y-77470000D03*
%TD*%
D22*
%TO.C,U1*%
X182880000Y-106680000D03*
X182880000Y-104140000D03*
X182880000Y-101600000D03*
X182880000Y-99060000D03*
X198120000Y-106680000D03*
X182880000Y-96520000D03*
X182880000Y-93980000D03*
X198120000Y-111760000D03*
X182880000Y-91440000D03*
X198120000Y-91440000D03*
X198120000Y-93980000D03*
X198120000Y-96520000D03*
X198120000Y-99060000D03*
X198120000Y-101600000D03*
X198120000Y-104140000D03*
X193040000Y-93980000D03*
X190500000Y-93980000D03*
X185420000Y-93980000D03*
X185420000Y-91440000D03*
X198120000Y-109220000D03*
X182880000Y-109220000D03*
D23*
X182880000Y-111760000D03*
%TD*%
D14*
%TO.C,R4*%
X179070000Y-106680000D03*
D15*
X179070000Y-96520000D03*
%TD*%
D24*
%TO.C,C2*%
X205740000Y-93940000D03*
D14*
X205740000Y-91440000D03*
%TD*%
%TO.C,R3*%
X176530000Y-96520000D03*
D15*
X176530000Y-106680000D03*
%TD*%
D25*
%TO.C,Q1*%
X170180000Y-101600000D03*
D26*
X170180000Y-99060000D03*
X170180000Y-96520000D03*
%TD*%
D24*
%TO.C,C1*%
X163790000Y-95250000D03*
D14*
X161290000Y-95250000D03*
%TD*%
D18*
%TO.C,D3*%
X171450000Y-106680000D03*
D27*
X173990000Y-106680000D03*
%TD*%
D28*
%TO.C,U2*%
X158755000Y-102875000D03*
D14*
X158755000Y-100335000D03*
X166375000Y-100335000D03*
X166375000Y-102875000D03*
%TD*%
D29*
%TO.C,D5*%
X201930000Y-111760000D03*
D30*
X201930000Y-101600000D03*
%TD*%
D18*
%TO.C,D4*%
X158750000Y-106680000D03*
D27*
X161290000Y-106680000D03*
%TD*%
D31*
%TO.C,K1*%
X177746300Y-86360000D03*
D32*
X180286300Y-86360000D03*
D13*
X190446300Y-86360000D03*
X195526300Y-86360000D03*
%TD*%
D27*
%TO.C,RV1*%
X212090000Y-83820000D03*
X210690000Y-76320000D03*
%TD*%
D32*
%TO.C,C3*%
X207010000Y-111695000D03*
X207010000Y-104195000D03*
%TD*%
D33*
%TO.C,R1*%
X176530000Y-77470000D03*
D34*
X156210000Y-77470000D03*
%TD*%
M02*
